<svg xmlns="http://www.w3.org/2000/svg" xmlns:xlink="http://www.w3.org/1999/xlink" xmlns:lucid="lucid" width="620" height="444"><g transform="translate(-20 -20)" lucid:page-tab-id="0_0"><path d="M0 0h660.52v480.38H0z" fill="#fff"/><path d="M40 40h240v136H40z" fill="#fff"/><path d="M40 40h240v40H40z" fill="#ccc"/><path d="M40 40h240v136H40zM40 80h240M159.73 80v96M217.08 80v96" stroke="#000" stroke-width="2" fill="none"/><use xlink:href="#a" transform="matrix(1,0,0,1,50,40) translate(74.5 23.6)"/><use xlink:href="#b" transform="matrix(1,0,0,1,45,82.5) translate(0 17.1)"/><use xlink:href="#b" transform="matrix(1,0,0,1,164.7299116739431,82.5) translate(0 17.1)"/><use xlink:href="#c" transform="matrix(1,0,0,1,222.0842299534719,82.5) translate(0 17.1)"/><use xlink:href="#d" transform="matrix(1,0,0,1,222.0842299534719,82.5) translate(24.950000000000003 17.1)"/><use xlink:href="#e" transform="matrix(1,0,0,1,45,114.5) translate(0 17.1)"/><use xlink:href="#f" transform="matrix(1,0,0,1,45,114.5) translate(33.9 17.1)"/><use xlink:href="#g" transform="matrix(1,0,0,1,164.7299116739431,114.5) translate(0 17.1)"/><use xlink:href="#h" transform="matrix(1,0,0,1,222.0842299534719,114.5) translate(0 17.1)"/><use xlink:href="#i" transform="matrix(1,0,0,1,45,146.5) translate(0 17.1)"/><use xlink:href="#f" transform="matrix(1,0,0,1,45,146.5) translate(63 17.1)"/><use xlink:href="#g" transform="matrix(1,0,0,1,164.7299116739431,146.5) translate(0 17.1)"/><use xlink:href="#h" transform="matrix(1,0,0,1,222.0842299534719,146.5) translate(0 17.1)"/><path d="M380 40h240v104H380z" fill="#fff"/><path d="M380 40h240v40H380z" fill="#ccc"/><path d="M380 40h240v104H380zM380 80h240M499.73 80v64M557.08 80v64" stroke="#000" stroke-width="2" fill="none"/><use xlink:href="#j" transform="matrix(1,0,0,1,390,40) translate(80.525 23.6)"/><use xlink:href="#b" transform="matrix(1,0,0,1,385,82.5) translate(0 17.1)"/><use xlink:href="#b" transform="matrix(1,0,0,1,504.7299116739431,82.5) translate(0 17.1)"/><use xlink:href="#c" transform="matrix(1,0,0,1,562.0842299534719,82.5) translate(0 17.1)"/><use xlink:href="#d" transform="matrix(1,0,0,1,562.0842299534719,82.5) translate(24.950000000000003 17.1)"/><use xlink:href="#k" transform="matrix(1,0,0,1,385,114.5) translate(0 17.1)"/><use xlink:href="#f" transform="matrix(1,0,0,1,385,114.5) translate(50.95 17.1)"/><use xlink:href="#g" transform="matrix(1,0,0,1,504.7299116739431,114.5) translate(0 17.1)"/><use xlink:href="#h" transform="matrix(1,0,0,1,562.0842299534719,114.5) translate(0 17.1)"/><path d="M40 250c0-16.57 13.43-30 30-30h180c16.57 0 30 13.43 30 30v12c0 16.57-13.43 30-30 30H70c-16.57 0-30-13.43-30-30z" fill="#fff"/><path d="M40 250c0-16.57 13.43-30 30-30h180c16.57 0 30 13.43 30 30v12c0 16.57-13.43 30-30 30H70c-16.57 0-30-13.43-30-30zM40 260h240M159.73 260v32M217.08 260v32" stroke="#000" stroke-width="2" fill="none"/><use xlink:href="#l" transform="matrix(1,0,0,1,50,220) translate(80.525 23.6)"/><use xlink:href="#m" transform="matrix(1,0,0,1,45,262.5) translate(32.025 17.1)"/><use xlink:href="#n" transform="matrix(1,0,0,1,164.7299116739431,262.5) translate(0 17.1)"/><use xlink:href="#c" transform="matrix(1,0,0,1,222.0842299534719,262.5) translate(0 17.1)"/><use xlink:href="#d" transform="matrix(1,0,0,1,222.0842299534719,262.5) translate(24.950000000000003 17.1)"/><path d="M280 60h99" stroke="#000" stroke-width="2" fill="none"/><path d="M302.24 60l-21.8 10.9-.44-.9v-1.12L297.76 60 280 51.12V50l.45-.9z"/><path fill="#fff"/><path d="M360 70h-2V50h2z"/><path d="M160 220v-43" stroke="#000" stroke-width="2" fill="none"/><path/><path d="M170.9 177.45l-10.9 21.8-10.9-21.8 1.8-.9 9.1 18.2 9.1-18.2z"/><path d="M40 340h240v104H40z" fill="#fff"/><path d="M40 340h240v40H40z" fill="#ccc"/><path d="M40 340h240v104H40zM40 380h240M159.73 380v64M217.08 380v64" stroke="#000" stroke-width="2" fill="none"/><use xlink:href="#o" transform="matrix(1,0,0,1,50,340) translate(75.525 23.6)"/><use xlink:href="#b" transform="matrix(1,0,0,1,45,382.5) translate(0 17.1)"/><use xlink:href="#b" transform="matrix(1,0,0,1,164.7299116739431,382.5) translate(0 17.1)"/><use xlink:href="#c" transform="matrix(1,0,0,1,222.0842299534719,382.5) translate(0 17.1)"/><use xlink:href="#d" transform="matrix(1,0,0,1,222.0842299534719,382.5) translate(24.950000000000003 17.1)"/><use xlink:href="#p" transform="matrix(1,0,0,1,45,414.5) translate(0 17.1)"/><use xlink:href="#f" transform="matrix(1,0,0,1,45,414.5) translate(61.95 17.1)"/><use xlink:href="#g" transform="matrix(1,0,0,1,164.7299116739431,414.5) translate(0 17.1)"/><use xlink:href="#h" transform="matrix(1,0,0,1,222.0842299534719,414.5) translate(0 17.1)"/><path d="M160 340v-48" stroke="#000" stroke-width="2" fill="none"/><path d="M170.9 339.55l-.9.45h-1.12L160 322.24 151.12 340H150l-.9-.45 10.9-21.8z"/><path/><path d="M380 308h240v136H380z" fill="#fff"/><path d="M380 308h240v40H380z" fill="#ccc"/><path d="M380 308h240v136H380zM380 348h240M499.73 348v96M557.08 348v96" stroke="#000" stroke-width="2" fill="none"/><use xlink:href="#q" transform="matrix(1,0,0,1,390,308) translate(78.05 23.6)"/><use xlink:href="#b" transform="matrix(1,0,0,1,385,350.5) translate(0 17.1)"/><use xlink:href="#b" transform="matrix(1,0,0,1,504.7299116739431,350.5) translate(0 17.1)"/><use xlink:href="#c" transform="matrix(1,0,0,1,562.0842299534719,350.5) translate(0 17.1)"/><use xlink:href="#d" transform="matrix(1,0,0,1,562.0842299534719,350.5) translate(24.950000000000003 17.1)"/><use xlink:href="#e" transform="matrix(1,0,0,1,385,382.5) translate(0 17.1)"/><use xlink:href="#f" transform="matrix(1,0,0,1,385,382.5) translate(33.9 17.1)"/><use xlink:href="#g" transform="matrix(1,0,0,1,504.7299116739431,382.5) translate(0 17.1)"/><use xlink:href="#h" transform="matrix(1,0,0,1,562.0842299534719,382.5) translate(0 17.1)"/><use xlink:href="#i" transform="matrix(1,0,0,1,385,414.5) translate(0 17.1)"/><use xlink:href="#f" transform="matrix(1,0,0,1,385,414.5) translate(63 17.1)"/><g><use xlink:href="#g" transform="matrix(1,0,0,1,504.7299116739431,414.5) translate(0 17.1)"/></g><g><use xlink:href="#h" transform="matrix(1,0,0,1,562.0842299534719,414.5) translate(0 17.1)"/></g><path d="M380 328h-49.5v32H281" stroke="#000" stroke-width="2" fill="none"/><path d="M380 318v1.12L362.24 328l17.76 8.88V338l-.45.9-21.8-10.9 21.8-10.9z"/><path fill="#fff"/><path d="M361 338h-2v-20h2zM303.24 360l-21.8 10.9-.9-1.8 18.22-9.1-18.2-9.1.9-1.8z"/><path fill="#fff"/><path d="M302 370h-2v-20h2z"/><defs><path d="M185-189c-5-48-123-54-124 2 14 75 158 14 163 119 3 78-121 87-175 55-17-10-28-26-33-46l33-7c5 56 141 63 141-1 0-78-155-14-162-118-5-82 145-84 179-34 5 7 8 16 11 25" id="r"/><path d="M59-47c-2 24 18 29 38 22v24C64 9 27 4 27-40v-127H5v-23h24l9-43h21v43h35v23H59v120" id="s"/><path d="M84 4C-5 8 30-112 23-190h32v120c0 31 7 50 39 49 72-2 45-101 50-169h31l1 190h-30c-1-10 1-25-2-33-11 22-28 36-60 37" id="t"/><path d="M85-194c31 0 48 13 60 33l-1-100h32l1 261h-30c-2-10 0-23-3-31C134-8 116 4 85 4 32 4 16-35 15-94c0-66 23-100 70-100zm9 24c-40 0-46 34-46 75 0 40 6 74 45 74 42 0 51-32 51-76 0-42-9-74-50-73" id="u"/><path d="M100-194c63 0 86 42 84 106H49c0 40 14 67 53 68 26 1 43-12 49-29l28 8c-11 28-37 45-77 45C44 4 14-33 15-96c1-61 26-98 85-98zm52 81c6-60-76-77-97-28-3 7-6 17-6 28h103" id="v"/><path d="M117-194c89-4 53 116 60 194h-32v-121c0-31-8-49-39-48C34-167 62-67 57 0H25l-1-190h30c1 10-1 24 2 32 11-22 29-35 61-36" id="w"/><path d="M135-143c-3-34-86-38-87 0 15 53 115 12 119 90S17 21 10-45l28-5c4 36 97 45 98 0-10-56-113-15-118-90-4-57 82-63 122-42 12 7 21 19 24 35" id="x"/><g id="a"><use transform="matrix(0.05,0,0,0.05,0,0)" xlink:href="#r"/><use transform="matrix(0.05,0,0,0.05,12,0)" xlink:href="#s"/><use transform="matrix(0.05,0,0,0.05,17,0)" xlink:href="#t"/><use transform="matrix(0.05,0,0,0.05,27,0)" xlink:href="#u"/><use transform="matrix(0.05,0,0,0.05,37,0)" xlink:href="#v"/><use transform="matrix(0.05,0,0,0.05,47,0)" xlink:href="#w"/><use transform="matrix(0.05,0,0,0.05,57,0)" xlink:href="#s"/><use transform="matrix(0.05,0,0,0.05,62,0)" xlink:href="#x"/></g><path d="M24-231v-30h32v30H24zM24 0v-190h32V0H24" id="y"/><g id="b"><use transform="matrix(0.05,0,0,0.05,0,0)" xlink:href="#y"/><use transform="matrix(0.05,0,0,0.05,3.95,0)" xlink:href="#u"/></g><path d="M240 0l2-218c-23 76-54 145-80 218h-23L58-218 59 0H30v-248h44l77 211c21-75 51-140 76-211h43V0h-30" id="z"/><path d="M68-38c1 34 0 65-14 84H32c9-13 17-26 17-46H33v-38h35" id="A"/><g id="c"><use transform="matrix(0.05,0,0,0.05,0,0)" xlink:href="#z"/><use transform="matrix(0.05,0,0,0.05,14.950000000000001,0)" xlink:href="#A"/></g><path d="M30-248c87 1 191-15 191 75 0 78-77 80-158 76V0H30v-248zm33 125c57 0 124 11 124-50 0-59-68-47-124-48v98" id="B"/><path d="M194 0L95-120 63-95V0H30v-248h33v124l119-124h40L117-140 236 0h-42" id="C"/><g id="d"><use transform="matrix(0.05,0,0,0.05,0,0)" xlink:href="#B"/><use transform="matrix(0.05,0,0,0.05,12,0)" xlink:href="#C"/></g><path d="M101-234c-31-9-42 10-38 44h38v23H63V0H32v-167H5v-23h27c-7-52 17-82 69-68v24" id="D"/><path d="M114-163C36-179 61-72 57 0H25l-1-190h30c1 12-1 29 2 39 6-27 23-49 58-41v29" id="E"/><g id="e"><use transform="matrix(0.05,0,0,0.05,0,0)" xlink:href="#D"/><use transform="matrix(0.05,0,0,0.05,5,0)" xlink:href="#y"/><use transform="matrix(0.05,0,0,0.05,8.95,0)" xlink:href="#E"/><use transform="matrix(0.05,0,0,0.05,14.899999999999999,0)" xlink:href="#x"/><use transform="matrix(0.05,0,0,0.05,23.9,0)" xlink:href="#s"/></g><path d="M141-36C126-15 110 5 73 4 37 3 15-17 15-53c-1-64 63-63 125-63 3-35-9-54-41-54-24 1-41 7-42 31l-33-3c5-37 33-52 76-52 45 0 72 20 72 64v82c-1 20 7 32 28 27v20c-31 9-61-2-59-35zM48-53c0 20 12 33 32 33 41-3 63-29 60-74-43 2-92-5-92 41" id="F"/><path d="M210-169c-67 3-38 105-44 169h-31v-121c0-29-5-50-35-48C34-165 62-65 56 0H25l-1-190h30c1 10-1 24 2 32 10-44 99-50 107 0 11-21 27-35 58-36 85-2 47 119 55 194h-31v-121c0-29-5-49-35-48" id="G"/><g id="f"><use transform="matrix(0.05,0,0,0.05,0,0)" xlink:href="#w"/><use transform="matrix(0.05,0,0,0.05,10,0)" xlink:href="#F"/><use transform="matrix(0.05,0,0,0.05,20,0)" xlink:href="#G"/><use transform="matrix(0.05,0,0,0.05,34.95,0)" xlink:href="#v"/></g><g id="g"><use transform="matrix(0.05,0,0,0.05,0,0)" xlink:href="#w"/><use transform="matrix(0.05,0,0,0.05,10,0)" xlink:href="#F"/><use transform="matrix(0.05,0,0,0.05,20,0)" xlink:href="#G"/><use transform="matrix(0.05,0,0,0.05,34.95,0)" xlink:href="#v"/></g><use transform="matrix(0.05,0,0,0.05,0,0)" xlink:href="#z" id="h"/><path d="M96-169c-40 0-48 33-48 73s9 75 48 75c24 0 41-14 43-38l32 2c-6 37-31 61-74 61-59 0-76-41-82-99-10-93 101-131 147-64 4 7 5 14 7 22l-32 3c-4-21-16-35-41-35" id="H"/><path d="M100-194c62-1 85 37 85 99 1 63-27 99-86 99S16-35 15-95c0-66 28-99 85-99zM99-20c44 1 53-31 53-75 0-43-8-75-51-75s-53 32-53 75 10 74 51 75" id="I"/><g id="i"><use transform="matrix(0.05,0,0,0.05,0,0)" xlink:href="#x"/><use transform="matrix(0.05,0,0,0.05,9,0)" xlink:href="#v"/><use transform="matrix(0.05,0,0,0.05,19,0)" xlink:href="#H"/><use transform="matrix(0.05,0,0,0.05,28,0)" xlink:href="#I"/><use transform="matrix(0.05,0,0,0.05,38,0)" xlink:href="#w"/><use transform="matrix(0.05,0,0,0.05,48,0)" xlink:href="#u"/></g><path d="M143 4C61 4 22-44 18-125c-5-107 100-154 193-111 17 8 29 25 37 43l-32 9c-13-25-37-40-76-40-61 0-88 39-88 99 0 61 29 100 91 101 35 0 62-11 79-27v-45h-74v-28h105v86C228-13 192 4 143 4" id="J"/><path d="M115-194c55 1 70 41 70 98S169 2 115 4C84 4 66-9 55-30l1 105H24l-1-265h31l2 30c10-21 28-34 59-34zm-8 174c40 0 45-34 45-75s-6-73-45-74c-42 0-51 32-51 76 0 43 10 73 51 73" id="K"/><g id="j"><use transform="matrix(0.05,0,0,0.05,0,0)" xlink:href="#J"/><use transform="matrix(0.05,0,0,0.05,14,0)" xlink:href="#E"/><use transform="matrix(0.05,0,0,0.05,19.95,0)" xlink:href="#I"/><use transform="matrix(0.05,0,0,0.05,29.950000000000003,0)" xlink:href="#t"/><use transform="matrix(0.05,0,0,0.05,39.95,0)" xlink:href="#K"/><use transform="matrix(0.05,0,0,0.05,49.95,0)" xlink:href="#x"/></g><path d="M177-190C167-65 218 103 67 71c-23-6-38-20-44-43l32-5c15 47 100 32 89-28v-30C133-14 115 1 83 1 29 1 15-40 15-95c0-56 16-97 71-98 29-1 48 16 59 35 1-10 0-23 2-32h30zM94-22c36 0 50-32 50-73 0-42-14-75-50-75-39 0-46 34-46 75s6 73 46 73" id="L"/><g id="k"><use transform="matrix(0.05,0,0,0.05,0,0)" xlink:href="#L"/><use transform="matrix(0.05,0,0,0.05,10,0)" xlink:href="#E"/><use transform="matrix(0.05,0,0,0.05,15.949999999999998,0)" xlink:href="#I"/><use transform="matrix(0.05,0,0,0.05,25.950000000000003,0)" xlink:href="#t"/><use transform="matrix(0.05,0,0,0.05,35.95,0)" xlink:href="#K"/></g><g id="l"><use transform="matrix(0.05,0,0,0.05,0,0)" xlink:href="#J"/><use transform="matrix(0.05,0,0,0.05,14,0)" xlink:href="#E"/><use transform="matrix(0.05,0,0,0.05,19.95,0)" xlink:href="#F"/><use transform="matrix(0.05,0,0,0.05,29.950000000000003,0)" xlink:href="#u"/><use transform="matrix(0.05,0,0,0.05,39.95,0)" xlink:href="#v"/><use transform="matrix(0.05,0,0,0.05,49.95,0)" xlink:href="#x"/></g><g id="m"><use transform="matrix(0.05,0,0,0.05,0,0)" xlink:href="#L"/><use transform="matrix(0.05,0,0,0.05,10,0)" xlink:href="#E"/><use transform="matrix(0.05,0,0,0.05,15.949999999999998,0)" xlink:href="#F"/><use transform="matrix(0.05,0,0,0.05,25.950000000000003,0)" xlink:href="#u"/><use transform="matrix(0.05,0,0,0.05,35.95,0)" xlink:href="#v"/></g><g id="n"><use transform="matrix(0.05,0,0,0.05,0,0)" xlink:href="#y"/><use transform="matrix(0.05,0,0,0.05,3.95,0)" xlink:href="#w"/><use transform="matrix(0.05,0,0,0.05,13.949999999999998,0)" xlink:href="#s"/></g><path d="M115-194c53 0 69 39 70 98 0 66-23 100-70 100C84 3 66-7 56-30L54 0H23l1-261h32v101c10-23 28-34 59-34zm-8 174c40 0 45-34 45-75 0-40-5-75-45-74-42 0-51 32-51 76 0 43 10 73 51 73" id="M"/><path d="M24-231v-30h32v30H24zM-9 49c24 4 33-6 33-30v-209h32V24c2 40-23 58-65 49V49" id="N"/><g id="o"><use transform="matrix(0.05,0,0,0.05,0,0)" xlink:href="#r"/><use transform="matrix(0.05,0,0,0.05,12,0)" xlink:href="#t"/><use transform="matrix(0.05,0,0,0.05,22,0)" xlink:href="#M"/><use transform="matrix(0.05,0,0,0.05,32,0)" xlink:href="#N"/><use transform="matrix(0.05,0,0,0.05,35.95,0)" xlink:href="#v"/><use transform="matrix(0.05,0,0,0.05,45.95,0)" xlink:href="#H"/><use transform="matrix(0.05,0,0,0.05,54.95,0)" xlink:href="#s"/><use transform="matrix(0.05,0,0,0.05,59.95,0)" xlink:href="#x"/></g><g id="p"><use transform="matrix(0.05,0,0,0.05,0,0)" xlink:href="#x"/><use transform="matrix(0.05,0,0,0.05,9,0)" xlink:href="#t"/><use transform="matrix(0.05,0,0,0.05,19,0)" xlink:href="#M"/><use transform="matrix(0.05,0,0,0.05,29,0)" xlink:href="#N"/><use transform="matrix(0.05,0,0,0.05,32.95,0)" xlink:href="#v"/><use transform="matrix(0.05,0,0,0.05,42.95,0)" xlink:href="#H"/><use transform="matrix(0.05,0,0,0.05,51.95,0)" xlink:href="#s"/></g><path d="M127-220V0H93v-220H8v-28h204v28h-85" id="O"/><path d="M106-169C34-169 62-67 57 0H25v-261h32l-1 103c12-21 28-36 61-36 89 0 53 116 60 194h-32v-121c2-32-8-49-39-48" id="P"/><g id="q"><use transform="matrix(0.05,0,0,0.05,0,0)" xlink:href="#O"/><use transform="matrix(0.05,0,0,0.05,8.950000000000001,0)" xlink:href="#v"/><use transform="matrix(0.05,0,0,0.05,18.950000000000003,0)" xlink:href="#F"/><use transform="matrix(0.05,0,0,0.05,28.950000000000003,0)" xlink:href="#H"/><use transform="matrix(0.05,0,0,0.05,37.95,0)" xlink:href="#P"/><use transform="matrix(0.05,0,0,0.05,47.95,0)" xlink:href="#v"/><use transform="matrix(0.05,0,0,0.05,57.95,0)" xlink:href="#E"/></g></defs></g></svg>