<svg xmlns="http://www.w3.org/2000/svg" xmlns:xlink="http://www.w3.org/1999/xlink" xmlns:lucid="lucid" width="872.95" height="576"><g transform="translate(-8.050000000000004 -20)" lucid:page-tab-id="0_0"><path d="M0 0h914.15v716.98H0z" fill="#fff"/><path d="M100 40h300v168H100z" fill="#fff"/><path d="M100 40h300v40H100z" fill="#ccc"/><path d="M100 40h300v168H100zM100 80h300M219.73 80v128M324.76 80v128" stroke="#000" stroke-width="2" fill="none"/><use xlink:href="#a" transform="matrix(1,0,0,1,110,40) translate(104.5 23.6)"/><use xlink:href="#b" transform="matrix(1,0,0,1,105,82.5) translate(0 17.1)"/><use xlink:href="#c" transform="matrix(1,0,0,1,224.7299116739431,82.5) translate(0 17.1)"/><use xlink:href="#d" transform="matrix(1,0,0,1,329.76103117645965,82.5) translate(0 17.1)"/><use xlink:href="#e" transform="matrix(1,0,0,1,329.76103117645965,82.5) translate(24.950000000000003 17.1)"/><use xlink:href="#f" transform="matrix(1,0,0,1,105,114.5) translate(0 17.1)"/><use xlink:href="#g" transform="matrix(1,0,0,1,105,114.5) translate(33.9 17.1)"/><use xlink:href="#h" transform="matrix(1,0,0,1,224.7299116739431,114.5) translate(0 17.1)"/><use xlink:href="#i" transform="matrix(1,0,0,1,329.76103117645965,114.5) translate(0 17.1)"/><use xlink:href="#j" transform="matrix(1,0,0,1,105,146.5) translate(0 17.1)"/><use xlink:href="#g" transform="matrix(1,0,0,1,105,146.5) translate(63 17.1)"/><use xlink:href="#h" transform="matrix(1,0,0,1,224.7299116739431,146.5) translate(0 17.1)"/><use xlink:href="#i" transform="matrix(1,0,0,1,329.76103117645965,146.5) translate(0 17.1)"/><use xlink:href="#k" transform="matrix(1,0,0,1,105,178.5) translate(0 17.1)"/><use xlink:href="#l" transform="matrix(1,0,0,1,224.7299116739431,178.5) translate(0 17.1)"/><use xlink:href="#m" transform="matrix(1,0,0,1,329.76103117645965,178.5) translate(0 17.1)"/><use xlink:href="#n" transform="matrix(1,0,0,1,329.76103117645965,178.5) translate(24.950000000000003 17.1)"/><path d="M520 40h260v104H520z" fill="#fff"/><path d="M520 40h260v40H520z" fill="#ccc"/><path d="M520 40h260v104H520zM520 80h260M639.73 80v64M717.08 80v64" stroke="#000" stroke-width="2" fill="none"/><use xlink:href="#o" transform="matrix(1,0,0,1,530,40) translate(90.525 23.6)"/><use xlink:href="#b" transform="matrix(1,0,0,1,525,82.5) translate(0 17.1)"/><use xlink:href="#c" transform="matrix(1,0,0,1,644.7299116739431,82.5) translate(0 17.1)"/><use xlink:href="#d" transform="matrix(1,0,0,1,722.0842299534719,82.5) translate(0 17.1)"/><use xlink:href="#e" transform="matrix(1,0,0,1,722.0842299534719,82.5) translate(24.950000000000003 17.1)"/><use xlink:href="#p" transform="matrix(1,0,0,1,525,114.5) translate(0 17.1)"/><use xlink:href="#g" transform="matrix(1,0,0,1,525,114.5) translate(50.95 17.1)"/><use xlink:href="#q" transform="matrix(1,0,0,1,644.7299116739431,114.5) translate(0 17.1)"/><use xlink:href="#i" transform="matrix(1,0,0,1,722.0842299534719,114.5) translate(0 17.1)"/><path d="M100 256h340v136H100z" fill="#fff"/><path d="M100 256h340v40H100z" fill="#ccc"/><path d="M100 256h340v136H100zM100 296h340M219.73 296v96M326.8 296v96" stroke="#000" stroke-width="2" fill="none"/><use xlink:href="#r" transform="matrix(1,0,0,1,110,256) translate(130.525 23.6)"/><use xlink:href="#s" transform="matrix(1,0,0,1,105,298.5) translate(0 17.1)"/><use xlink:href="#c" transform="matrix(1,0,0,1,224.7299116739431,298.5) translate(0 17.1)"/><use xlink:href="#d" transform="matrix(1,0,0,1,331.7868239677897,298.5) translate(0 17.1)"/><use xlink:href="#t" transform="matrix(1,0,0,1,331.7868239677897,298.5) translate(24.950000000000003 17.1)"/><use xlink:href="#u" transform="matrix(1,0,0,1,331.7868239677897,298.5) translate(58.95 17.1)"/><use xlink:href="#v" transform="matrix(1,0,0,1,105,330.5) translate(0 17.1)"/><use xlink:href="#c" transform="matrix(1,0,0,1,224.7299116739431,330.5) translate(0 17.1)"/><use xlink:href="#d" transform="matrix(1,0,0,1,331.7868239677897,330.5) translate(0 17.1)"/><use xlink:href="#t" transform="matrix(1,0,0,1,331.7868239677897,330.5) translate(24.950000000000003 17.1)"/><use xlink:href="#w" transform="matrix(1,0,0,1,331.7868239677897,330.5) translate(58.95 17.1)"/><use xlink:href="#x" transform="matrix(1,0,0,1,105,362.5) translate(0 17.1)"/><use xlink:href="#c" transform="matrix(1,0,0,1,224.7299116739431,362.5) translate(0 17.1)"/><use xlink:href="#i" transform="matrix(1,0,0,1,331.7868239677897,362.5) translate(0 17.1)"/><path d="M100 440h340v136H100z" fill="#fff"/><path d="M100 440h340v40H100z" fill="#ccc"/><path d="M100 440h340v136H100zM100 480h340M219.73 480v96M327.27 480v96" stroke="#000" stroke-width="2" fill="none"/><use xlink:href="#y" transform="matrix(1,0,0,1,110,440) translate(125.525 23.6)"/><use xlink:href="#b" transform="matrix(1,0,0,1,105,482.5) translate(0 17.1)"/><use xlink:href="#c" transform="matrix(1,0,0,1,224.7299116739431,482.5) translate(0 17.1)"/><use xlink:href="#d" transform="matrix(1,0,0,1,332.2738247690305,482.5) translate(0 17.1)"/><use xlink:href="#t" transform="matrix(1,0,0,1,332.2738247690305,482.5) translate(24.950000000000003 17.1)"/><use xlink:href="#z" transform="matrix(1,0,0,1,332.2738247690305,482.5) translate(58.95 17.1)"/><use xlink:href="#A" transform="matrix(1,0,0,1,105,514.5) translate(0 17.1)"/><use xlink:href="#g" transform="matrix(1,0,0,1,105,514.5) translate(61.95 17.1)"/><use xlink:href="#h" transform="matrix(1,0,0,1,224.7299116739431,514.5) translate(0 17.1)"/><use xlink:href="#i" transform="matrix(1,0,0,1,332.2738247690305,514.5) translate(0 17.1)"/><use xlink:href="#B" transform="matrix(1,0,0,1,105,546.5) translate(0 17.1)"/><use xlink:href="#c" transform="matrix(1,0,0,1,224.7299116739431,546.5) translate(0 17.1)"/><use xlink:href="#d" transform="matrix(1,0,0,1,332.2738247690305,546.5) translate(0 17.1)"/><use xlink:href="#z" transform="matrix(1,0,0,1,332.2738247690305,546.5) translate(24.950000000000003 17.1)"/><path d="M500 240h340v168H500z" fill="#fff"/><path d="M500 240h340v40H500z" fill="#ccc"/><path d="M500 240h340v168H500zM500 280h340M619.73 280v128M728.58 280v128" stroke="#000" stroke-width="2" fill="none"/><use xlink:href="#C" transform="matrix(1,0,0,1,510,240) translate(128.05 23.6)"/><use xlink:href="#b" transform="matrix(1,0,0,1,505,282.5) translate(0 17.1)"/><use xlink:href="#c" transform="matrix(1,0,0,1,624.7299116739431,282.5) translate(0 17.1)"/><use xlink:href="#d" transform="matrix(1,0,0,1,733.5839084333438,282.5) translate(0 17.1)"/><use xlink:href="#t" transform="matrix(1,0,0,1,733.5839084333438,282.5) translate(24.950000000000003 17.1)"/><use xlink:href="#z" transform="matrix(1,0,0,1,733.5839084333438,282.5) translate(58.95 17.1)"/><use xlink:href="#f" transform="matrix(1,0,0,1,505,314.5) translate(0 17.1)"/><use xlink:href="#g" transform="matrix(1,0,0,1,505,314.5) translate(33.9 17.1)"/><use xlink:href="#h" transform="matrix(1,0,0,1,624.7299116739431,314.5) translate(0 17.1)"/><use xlink:href="#i" transform="matrix(1,0,0,1,733.5839084333438,314.5) translate(0 17.1)"/><use xlink:href="#j" transform="matrix(1,0,0,1,505,346.5) translate(0 17.1)"/><use xlink:href="#g" transform="matrix(1,0,0,1,505,346.5) translate(63 17.1)"/><use xlink:href="#h" transform="matrix(1,0,0,1,624.7299116739431,346.5) translate(0 17.1)"/><use xlink:href="#i" transform="matrix(1,0,0,1,733.5839084333438,346.5) translate(0 17.1)"/><use xlink:href="#D" transform="matrix(1,0,0,1,505,378.5) translate(0 17.1)"/><use xlink:href="#l" transform="matrix(1,0,0,1,624.7299116739431,378.5) translate(0 17.1)"/><use xlink:href="#m" transform="matrix(1,0,0,1,733.5839084333438,378.5) translate(0 17.1)"/><use xlink:href="#n" transform="matrix(1,0,0,1,733.5839084333438,378.5) translate(24.950000000000003 17.1)"/><path d="M400 192h60V96h60" stroke="#000" stroke-width="2" fill="none"/><path/><path d="M520 96l-14.27 4.64v-9.28z"/><path d="M520 94.95v2.1L504.73 102V90zm-13.27 4.3L516.76 96l-10.03-3.26z"/><use xlink:href="#E" transform="matrix(1,0,0,1,467.99999999999994,163.5154032223009) translate(0 14.4)"/><path d="M100 312H60V96h40" stroke="#000" stroke-width="2" fill="none"/><path/><path d="M100 96l-14.27 4.64v-9.28z"/><path d="M100 94.95v2.1L84.73 102V90zm-13.27 4.3L96.76 96l-10.03-3.26z"/><use xlink:href="#F" transform="matrix(1,0,0,1,19.050000000000004,193.20000000000002) translate(0 14.4)"/><path d="M100 344H60v152h40" stroke="#000" stroke-width="2" fill="none"/><path/><path d="M100 496l-14.27 4.64v-9.28z"/><path d="M100 494.95v2.1L84.73 502v-12zm-13.27 4.3L96.76 496l-10.03-3.26z"/><use xlink:href="#G" transform="matrix(1,0,0,1,19.050000000000004,409.2) translate(0 14.4)"/><path d="M520 472h270v104H520z" fill="#fff"/><path d="M520 472h270v40H520z" fill="#ccc"/><path d="M520 472h270v104H520zM520 512h270M639.73 512v64M683.98 512v64" stroke="#000" stroke-width="2" fill="none"/><use xlink:href="#H" transform="matrix(1,0,0,1,530,472) translate(58.57499999999999 23.6)"/><use xlink:href="#v" transform="matrix(1,0,0,1,525,514.5) translate(0 17.1)"/><use xlink:href="#c" transform="matrix(1,0,0,1,644.7299116739431,514.5) translate(0 17.1)"/><use xlink:href="#d" transform="matrix(1,0,0,1,688.9785974354282,514.5) translate(0 17.1)"/><use xlink:href="#t" transform="matrix(1,0,0,1,688.9785974354282,514.5) translate(24.950000000000003 17.1)"/><use xlink:href="#u" transform="matrix(1,0,0,1,688.9785974354282,514.5) translate(58.95 17.1)"/><use xlink:href="#I" transform="matrix(1,0,0,1,525,546.5) translate(0 17.1)"/><use xlink:href="#c" transform="matrix(1,0,0,1,644.7299116739431,546.5) translate(0 17.1)"/><use xlink:href="#d" transform="matrix(1,0,0,1,688.9785974354282,546.5) translate(0 17.1)"/><use xlink:href="#t" transform="matrix(1,0,0,1,688.9785974354282,546.5) translate(24.950000000000003 17.1)"/><use xlink:href="#w" transform="matrix(1,0,0,1,688.9785974354282,546.5) translate(58.95 17.1)"/><path d="M790 560h80V296h-30" stroke="#000" stroke-width="2" fill="none"/><path/><path d="M854.27 300.64L840 296l14.27-4.64z"/><path d="M855.27 302L840 297.06v-2.1l15.27-4.96zm-12.03-6l10.03 3.26v-6.52z"/><g><use xlink:href="#G" transform="matrix(1,0,0,1,829.05,529.8686017333412) translate(0 14.4)"/></g><path d="M520 528h-50v-32h-30" stroke="#000" stroke-width="2" fill="none"/><path/><path d="M454.27 500.64L440 496l14.27-4.64z"/><path d="M455.27 502L440 497.06v-2.1l15.27-4.96zm-12.03-6l10.03 3.26v-6.52z"/><g><use xlink:href="#F" transform="matrix(1,0,0,1,464.61156248912164,532.0000000000001) translate(0 14.4)"/></g><path d="M440 460h50v32h30" stroke="#000" stroke-width="2" fill="none"/><path/><path d="M520 492l-14.27 4.64v-9.28z"/><path d="M520 490.95v2.1L504.73 498v-12zm-13.27 4.3l10.03-3.25-10.03-3.26z"/><g><use xlink:href="#E" transform="matrix(1,0,0,1,469.9417568791311,434.4) translate(0 14.4)"/></g><path d="M670 408v63" stroke="#000" stroke-width="2" fill="none"/><path/><path d="M670 471l-4.64-14.27h9.28z"/><path d="M670.73 472h-1.46L664 455.73h12zm-4-14.27l3.27 10.03 3.26-10.03z"/><g><use xlink:href="#E" transform="matrix(1,0,0,1,678,428.7) translate(0 14.4)"/></g><defs><path d="M185-189c-5-48-123-54-124 2 14 75 158 14 163 119 3 78-121 87-175 55-17-10-28-26-33-46l33-7c5 56 141 63 141-1 0-78-155-14-162-118-5-82 145-84 179-34 5 7 8 16 11 25" id="J"/><path d="M59-47c-2 24 18 29 38 22v24C64 9 27 4 27-40v-127H5v-23h24l9-43h21v43h35v23H59v120" id="K"/><path d="M84 4C-5 8 30-112 23-190h32v120c0 31 7 50 39 49 72-2 45-101 50-169h31l1 190h-30c-1-10 1-25-2-33-11 22-28 36-60 37" id="L"/><path d="M85-194c31 0 48 13 60 33l-1-100h32l1 261h-30c-2-10 0-23-3-31C134-8 116 4 85 4 32 4 16-35 15-94c0-66 23-100 70-100zm9 24c-40 0-46 34-46 75 0 40 6 74 45 74 42 0 51-32 51-76 0-42-9-74-50-73" id="M"/><path d="M100-194c63 0 86 42 84 106H49c0 40 14 67 53 68 26 1 43-12 49-29l28 8c-11 28-37 45-77 45C44 4 14-33 15-96c1-61 26-98 85-98zm52 81c6-60-76-77-97-28-3 7-6 17-6 28h103" id="N"/><path d="M117-194c89-4 53 116 60 194h-32v-121c0-31-8-49-39-48C34-167 62-67 57 0H25l-1-190h30c1 10-1 24 2 32 11-22 29-35 61-36" id="O"/><path d="M135-143c-3-34-86-38-87 0 15 53 115 12 119 90S17 21 10-45l28-5c4 36 97 45 98 0-10-56-113-15-118-90-4-57 82-63 122-42 12 7 21 19 24 35" id="P"/><g id="a"><use transform="matrix(0.05,0,0,0.05,0,0)" xlink:href="#J"/><use transform="matrix(0.05,0,0,0.05,12,0)" xlink:href="#K"/><use transform="matrix(0.05,0,0,0.05,17,0)" xlink:href="#L"/><use transform="matrix(0.05,0,0,0.05,27,0)" xlink:href="#M"/><use transform="matrix(0.05,0,0,0.05,37,0)" xlink:href="#N"/><use transform="matrix(0.05,0,0,0.05,47,0)" xlink:href="#O"/><use transform="matrix(0.05,0,0,0.05,57,0)" xlink:href="#K"/><use transform="matrix(0.05,0,0,0.05,62,0)" xlink:href="#P"/></g><path d="M24-231v-30h32v30H24zM24 0v-190h32V0H24" id="Q"/><g id="b"><use transform="matrix(0.05,0,0,0.05,0,0)" xlink:href="#Q"/><use transform="matrix(0.05,0,0,0.05,3.95,0)" xlink:href="#M"/></g><g id="c"><use transform="matrix(0.05,0,0,0.05,0,0)" xlink:href="#Q"/><use transform="matrix(0.05,0,0,0.05,3.95,0)" xlink:href="#O"/><use transform="matrix(0.05,0,0,0.05,13.949999999999998,0)" xlink:href="#K"/></g><path d="M240 0l2-218c-23 76-54 145-80 218h-23L58-218 59 0H30v-248h44l77 211c21-75 51-140 76-211h43V0h-30" id="R"/><path d="M68-38c1 34 0 65-14 84H32c9-13 17-26 17-46H33v-38h35" id="S"/><g id="d"><use transform="matrix(0.05,0,0,0.05,0,0)" xlink:href="#R"/><use transform="matrix(0.05,0,0,0.05,14.950000000000001,0)" xlink:href="#S"/></g><path d="M30-248c87 1 191-15 191 75 0 78-77 80-158 76V0H30v-248zm33 125c57 0 124 11 124-50 0-59-68-47-124-48v98" id="T"/><path d="M194 0L95-120 63-95V0H30v-248h33v124l119-124h40L117-140 236 0h-42" id="U"/><g id="e"><use transform="matrix(0.05,0,0,0.05,0,0)" xlink:href="#T"/><use transform="matrix(0.05,0,0,0.05,12,0)" xlink:href="#U"/></g><path d="M101-234c-31-9-42 10-38 44h38v23H63V0H32v-167H5v-23h27c-7-52 17-82 69-68v24" id="V"/><path d="M114-163C36-179 61-72 57 0H25l-1-190h30c1 12-1 29 2 39 6-27 23-49 58-41v29" id="W"/><g id="f"><use transform="matrix(0.05,0,0,0.05,0,0)" xlink:href="#V"/><use transform="matrix(0.05,0,0,0.05,5,0)" xlink:href="#Q"/><use transform="matrix(0.05,0,0,0.05,8.95,0)" xlink:href="#W"/><use transform="matrix(0.05,0,0,0.05,14.899999999999999,0)" xlink:href="#P"/><use transform="matrix(0.05,0,0,0.05,23.9,0)" xlink:href="#K"/></g><path d="M141-36C126-15 110 5 73 4 37 3 15-17 15-53c-1-64 63-63 125-63 3-35-9-54-41-54-24 1-41 7-42 31l-33-3c5-37 33-52 76-52 45 0 72 20 72 64v82c-1 20 7 32 28 27v20c-31 9-61-2-59-35zM48-53c0 20 12 33 32 33 41-3 63-29 60-74-43 2-92-5-92 41" id="X"/><path d="M210-169c-67 3-38 105-44 169h-31v-121c0-29-5-50-35-48C34-165 62-65 56 0H25l-1-190h30c1 10-1 24 2 32 10-44 99-50 107 0 11-21 27-35 58-36 85-2 47 119 55 194h-31v-121c0-29-5-49-35-48" id="Y"/><g id="g"><use transform="matrix(0.05,0,0,0.05,0,0)" xlink:href="#O"/><use transform="matrix(0.05,0,0,0.05,10,0)" xlink:href="#X"/><use transform="matrix(0.05,0,0,0.05,20,0)" xlink:href="#Y"/><use transform="matrix(0.05,0,0,0.05,34.95,0)" xlink:href="#N"/></g><path d="M108 0H70L1-190h34L89-25l56-165h34" id="Z"/><path d="M96-169c-40 0-48 33-48 73s9 75 48 75c24 0 41-14 43-38l32 2c-6 37-31 61-74 61-59 0-76-41-82-99-10-93 101-131 147-64 4 7 5 14 7 22l-32 3c-4-21-16-35-41-35" id="aa"/><path d="M106-169C34-169 62-67 57 0H25v-261h32l-1 103c12-21 28-36 61-36 89 0 53 116 60 194h-32v-121c2-32-8-49-39-48" id="ab"/><path d="M87 75C49 33 22-17 22-94c0-76 28-126 65-167h31c-38 41-64 92-64 168S80 34 118 75H87" id="ac"/><path d="M54-142c48-35 137-8 131 61C196 18 31 33 14-55l32-4c7 23 22 37 52 37 35-1 51-22 54-58 4-55-73-65-99-34H22l8-134h141v27H59" id="ad"/><path d="M101-251c68 0 85 55 85 127S166 4 100 4C33 4 14-52 14-124c0-73 17-127 87-127zm-1 229c47 0 54-49 54-102s-4-102-53-102c-51 0-55 48-55 102 0 53 5 102 54 102" id="ae"/><path d="M33-261c38 41 65 92 65 168S71 34 33 75H2C39 34 66-17 66-93S39-220 2-261h31" id="af"/><g id="h"><use transform="matrix(0.05,0,0,0.05,0,0)" xlink:href="#Z"/><use transform="matrix(0.05,0,0,0.05,9,0)" xlink:href="#X"/><use transform="matrix(0.05,0,0,0.05,19,0)" xlink:href="#W"/><use transform="matrix(0.05,0,0,0.05,24.95,0)" xlink:href="#aa"/><use transform="matrix(0.05,0,0,0.05,33.95,0)" xlink:href="#ab"/><use transform="matrix(0.05,0,0,0.05,43.95,0)" xlink:href="#X"/><use transform="matrix(0.05,0,0,0.05,53.95,0)" xlink:href="#W"/><use transform="matrix(0.05,0,0,0.05,59.900000000000006,0)" xlink:href="#ac"/><use transform="matrix(0.05,0,0,0.05,65.85000000000001,0)" xlink:href="#ad"/><use transform="matrix(0.05,0,0,0.05,75.85000000000001,0)" xlink:href="#ae"/><use transform="matrix(0.05,0,0,0.05,85.85000000000001,0)" xlink:href="#af"/></g><use transform="matrix(0.05,0,0,0.05,0,0)" xlink:href="#R" id="i"/><path d="M100-194c62-1 85 37 85 99 1 63-27 99-86 99S16-35 15-95c0-66 28-99 85-99zM99-20c44 1 53-31 53-75 0-43-8-75-51-75s-53 32-53 75 10 74 51 75" id="ag"/><g id="j"><use transform="matrix(0.05,0,0,0.05,0,0)" xlink:href="#P"/><use transform="matrix(0.05,0,0,0.05,9,0)" xlink:href="#N"/><use transform="matrix(0.05,0,0,0.05,19,0)" xlink:href="#aa"/><use transform="matrix(0.05,0,0,0.05,28,0)" xlink:href="#ag"/><use transform="matrix(0.05,0,0,0.05,38,0)" xlink:href="#O"/><use transform="matrix(0.05,0,0,0.05,48,0)" xlink:href="#M"/></g><path d="M177-190C167-65 218 103 67 71c-23-6-38-20-44-43l32-5c15 47 100 32 89-28v-30C133-14 115 1 83 1 29 1 15-40 15-95c0-56 16-97 71-98 29-1 48 16 59 35 1-10 0-23 2-32h30zM94-22c36 0 50-32 50-73 0-42-14-75-50-75-39 0-46 34-46 75s6 73 46 73" id="ah"/><path d="M115-194c55 1 70 41 70 98S169 2 115 4C84 4 66-9 55-30l1 105H24l-1-265h31l2 30c10-21 28-34 59-34zm-8 174c40 0 45-34 45-75s-6-73-45-74c-42 0-51 32-51 76 0 43 10 73 51 73" id="ai"/><path d="M-5 72V49h209v23H-5" id="aj"/><g id="k"><use transform="matrix(0.05,0,0,0.05,0,0)" xlink:href="#ah"/><use transform="matrix(0.05,0,0,0.05,10,0)" xlink:href="#W"/><use transform="matrix(0.05,0,0,0.05,15.949999999999998,0)" xlink:href="#ag"/><use transform="matrix(0.05,0,0,0.05,25.950000000000003,0)" xlink:href="#L"/><use transform="matrix(0.05,0,0,0.05,35.95,0)" xlink:href="#ai"/><use transform="matrix(0.05,0,0,0.05,45.95,0)" xlink:href="#aj"/><use transform="matrix(0.05,0,0,0.05,55.95,0)" xlink:href="#Q"/><use transform="matrix(0.05,0,0,0.05,59.900000000000006,0)" xlink:href="#M"/></g><g id="l"><use transform="matrix(0.05,0,0,0.05,0,0)" xlink:href="#Q"/><use transform="matrix(0.05,0,0,0.05,3.95,0)" xlink:href="#O"/><use transform="matrix(0.05,0,0,0.05,13.949999999999998,0)" xlink:href="#K"/></g><g id="m"><use transform="matrix(0.05,0,0,0.05,0,0)" xlink:href="#R"/><use transform="matrix(0.05,0,0,0.05,14.950000000000001,0)" xlink:href="#S"/></g><path d="M63-220v92h138v28H63V0H30v-248h175v28H63" id="ak"/><g id="n"><use transform="matrix(0.05,0,0,0.05,0,0)" xlink:href="#ak"/><use transform="matrix(0.05,0,0,0.05,10.950000000000001,0)" xlink:href="#U"/></g><path d="M143 4C61 4 22-44 18-125c-5-107 100-154 193-111 17 8 29 25 37 43l-32 9c-13-25-37-40-76-40-61 0-88 39-88 99 0 61 29 100 91 101 35 0 62-11 79-27v-45h-74v-28h105v86C228-13 192 4 143 4" id="al"/><g id="o"><use transform="matrix(0.05,0,0,0.05,0,0)" xlink:href="#al"/><use transform="matrix(0.05,0,0,0.05,14,0)" xlink:href="#W"/><use transform="matrix(0.05,0,0,0.05,19.95,0)" xlink:href="#ag"/><use transform="matrix(0.05,0,0,0.05,29.950000000000003,0)" xlink:href="#L"/><use transform="matrix(0.05,0,0,0.05,39.95,0)" xlink:href="#ai"/><use transform="matrix(0.05,0,0,0.05,49.95,0)" xlink:href="#P"/></g><g id="p"><use transform="matrix(0.05,0,0,0.05,0,0)" xlink:href="#ah"/><use transform="matrix(0.05,0,0,0.05,10,0)" xlink:href="#W"/><use transform="matrix(0.05,0,0,0.05,15.949999999999998,0)" xlink:href="#ag"/><use transform="matrix(0.05,0,0,0.05,25.950000000000003,0)" xlink:href="#L"/><use transform="matrix(0.05,0,0,0.05,35.95,0)" xlink:href="#ai"/></g><g id="q"><use transform="matrix(0.05,0,0,0.05,0,0)" xlink:href="#aa"/><use transform="matrix(0.05,0,0,0.05,9,0)" xlink:href="#ab"/><use transform="matrix(0.05,0,0,0.05,19,0)" xlink:href="#X"/><use transform="matrix(0.05,0,0,0.05,29,0)" xlink:href="#W"/><use transform="matrix(0.05,0,0,0.05,34.95,0)" xlink:href="#ac"/><use transform="matrix(0.05,0,0,0.05,40.900000000000006,0)" xlink:href="#ad"/><use transform="matrix(0.05,0,0,0.05,50.900000000000006,0)" xlink:href="#af"/></g><g id="r"><use transform="matrix(0.05,0,0,0.05,0,0)" xlink:href="#al"/><use transform="matrix(0.05,0,0,0.05,14,0)" xlink:href="#W"/><use transform="matrix(0.05,0,0,0.05,19.95,0)" xlink:href="#X"/><use transform="matrix(0.05,0,0,0.05,29.950000000000003,0)" xlink:href="#M"/><use transform="matrix(0.05,0,0,0.05,39.95,0)" xlink:href="#N"/><use transform="matrix(0.05,0,0,0.05,49.95,0)" xlink:href="#P"/></g><g id="s"><use transform="matrix(0.05,0,0,0.05,0,0)" xlink:href="#P"/><use transform="matrix(0.05,0,0,0.05,9,0)" xlink:href="#K"/><use transform="matrix(0.05,0,0,0.05,14,0)" xlink:href="#L"/><use transform="matrix(0.05,0,0,0.05,24,0)" xlink:href="#M"/><use transform="matrix(0.05,0,0,0.05,34,0)" xlink:href="#N"/><use transform="matrix(0.05,0,0,0.05,44,0)" xlink:href="#O"/><use transform="matrix(0.05,0,0,0.05,54,0)" xlink:href="#K"/><use transform="matrix(0.05,0,0,0.05,59,0)" xlink:href="#aj"/><use transform="matrix(0.05,0,0,0.05,69,0)" xlink:href="#Q"/><use transform="matrix(0.05,0,0,0.05,72.95,0)" xlink:href="#M"/></g><g id="t"><use transform="matrix(0.05,0,0,0.05,0,0)" xlink:href="#T"/><use transform="matrix(0.05,0,0,0.05,12,0)" xlink:href="#U"/><use transform="matrix(0.05,0,0,0.05,24,0)" xlink:href="#S"/></g><path d="M27 0v-27h64v-190l-56 39v-29l58-41h29v221h61V0H27" id="am"/><g id="u"><use transform="matrix(0.05,0,0,0.05,0,0)" xlink:href="#ak"/><use transform="matrix(0.05,0,0,0.05,10.950000000000001,0)" xlink:href="#U"/><use transform="matrix(0.05,0,0,0.05,22.950000000000003,0)" xlink:href="#am"/></g><path d="M115-194c53 0 69 39 70 98 0 66-23 100-70 100C84 3 66-7 56-30L54 0H23l1-261h32v101c10-23 28-34 59-34zm-8 174c40 0 45-34 45-75 0-40-5-75-45-74-42 0-51 32-51 76 0 43 10 73 51 73" id="an"/><path d="M24-231v-30h32v30H24zM-9 49c24 4 33-6 33-30v-209h32V24c2 40-23 58-65 49V49" id="ao"/><g id="v"><use transform="matrix(0.05,0,0,0.05,0,0)" xlink:href="#P"/><use transform="matrix(0.05,0,0,0.05,9,0)" xlink:href="#L"/><use transform="matrix(0.05,0,0,0.05,19,0)" xlink:href="#an"/><use transform="matrix(0.05,0,0,0.05,29,0)" xlink:href="#ao"/><use transform="matrix(0.05,0,0,0.05,32.95,0)" xlink:href="#N"/><use transform="matrix(0.05,0,0,0.05,42.95,0)" xlink:href="#aa"/><use transform="matrix(0.05,0,0,0.05,51.95,0)" xlink:href="#K"/><use transform="matrix(0.05,0,0,0.05,56.95,0)" xlink:href="#aj"/><use transform="matrix(0.05,0,0,0.05,66.95,0)" xlink:href="#Q"/><use transform="matrix(0.05,0,0,0.05,70.9,0)" xlink:href="#M"/></g><path d="M101-251c82-7 93 87 43 132L82-64C71-53 59-42 53-27h129V0H18c2-99 128-94 128-182 0-28-16-43-45-43s-46 15-49 41l-32-3c6-41 34-60 81-64" id="ap"/><g id="w"><use transform="matrix(0.05,0,0,0.05,0,0)" xlink:href="#ak"/><use transform="matrix(0.05,0,0,0.05,10.950000000000001,0)" xlink:href="#U"/><use transform="matrix(0.05,0,0,0.05,22.950000000000003,0)" xlink:href="#ap"/></g><g id="x"><use transform="matrix(0.05,0,0,0.05,0,0)" xlink:href="#ah"/><use transform="matrix(0.05,0,0,0.05,10,0)" xlink:href="#W"/><use transform="matrix(0.05,0,0,0.05,15.949999999999998,0)" xlink:href="#X"/><use transform="matrix(0.05,0,0,0.05,25.950000000000003,0)" xlink:href="#M"/><use transform="matrix(0.05,0,0,0.05,35.95,0)" xlink:href="#N"/></g><g id="y"><use transform="matrix(0.05,0,0,0.05,0,0)" xlink:href="#J"/><use transform="matrix(0.05,0,0,0.05,12,0)" xlink:href="#L"/><use transform="matrix(0.05,0,0,0.05,22,0)" xlink:href="#an"/><use transform="matrix(0.05,0,0,0.05,32,0)" xlink:href="#ao"/><use transform="matrix(0.05,0,0,0.05,35.95,0)" xlink:href="#N"/><use transform="matrix(0.05,0,0,0.05,45.95,0)" xlink:href="#aa"/><use transform="matrix(0.05,0,0,0.05,54.95,0)" xlink:href="#K"/><use transform="matrix(0.05,0,0,0.05,59.95,0)" xlink:href="#P"/></g><g id="z"><use transform="matrix(0.05,0,0,0.05,0,0)" xlink:href="#ak"/><use transform="matrix(0.05,0,0,0.05,10.950000000000001,0)" xlink:href="#U"/></g><g id="A"><use transform="matrix(0.05,0,0,0.05,0,0)" xlink:href="#P"/><use transform="matrix(0.05,0,0,0.05,9,0)" xlink:href="#L"/><use transform="matrix(0.05,0,0,0.05,19,0)" xlink:href="#an"/><use transform="matrix(0.05,0,0,0.05,29,0)" xlink:href="#ao"/><use transform="matrix(0.05,0,0,0.05,32.95,0)" xlink:href="#N"/><use transform="matrix(0.05,0,0,0.05,42.95,0)" xlink:href="#aa"/><use transform="matrix(0.05,0,0,0.05,51.95,0)" xlink:href="#K"/></g><g id="B"><use transform="matrix(0.05,0,0,0.05,0,0)" xlink:href="#K"/><use transform="matrix(0.05,0,0,0.05,5,0)" xlink:href="#N"/><use transform="matrix(0.05,0,0,0.05,15,0)" xlink:href="#X"/><use transform="matrix(0.05,0,0,0.05,25,0)" xlink:href="#aa"/><use transform="matrix(0.05,0,0,0.05,34,0)" xlink:href="#ab"/><use transform="matrix(0.05,0,0,0.05,44,0)" xlink:href="#N"/><use transform="matrix(0.05,0,0,0.05,54,0)" xlink:href="#W"/><use transform="matrix(0.05,0,0,0.05,59.95,0)" xlink:href="#P"/><use transform="matrix(0.05,0,0,0.05,68.95,0)" xlink:href="#aj"/><use transform="matrix(0.05,0,0,0.05,78.95,0)" xlink:href="#Q"/><use transform="matrix(0.05,0,0,0.05,82.9,0)" xlink:href="#M"/></g><path d="M127-220V0H93v-220H8v-28h204v28h-85" id="aq"/><g id="C"><use transform="matrix(0.05,0,0,0.05,0,0)" xlink:href="#aq"/><use transform="matrix(0.05,0,0,0.05,8.950000000000001,0)" xlink:href="#N"/><use transform="matrix(0.05,0,0,0.05,18.950000000000003,0)" xlink:href="#X"/><use transform="matrix(0.05,0,0,0.05,28.950000000000003,0)" xlink:href="#aa"/><use transform="matrix(0.05,0,0,0.05,37.95,0)" xlink:href="#ab"/><use transform="matrix(0.05,0,0,0.05,47.95,0)" xlink:href="#N"/><use transform="matrix(0.05,0,0,0.05,57.95,0)" xlink:href="#W"/></g><g id="D"><use transform="matrix(0.05,0,0,0.05,0,0)" xlink:href="#P"/><use transform="matrix(0.05,0,0,0.05,9,0)" xlink:href="#L"/><use transform="matrix(0.05,0,0,0.05,19,0)" xlink:href="#an"/><use transform="matrix(0.05,0,0,0.05,29,0)" xlink:href="#ao"/><use transform="matrix(0.05,0,0,0.05,32.95,0)" xlink:href="#N"/><use transform="matrix(0.05,0,0,0.05,42.95,0)" xlink:href="#aa"/><use transform="matrix(0.05,0,0,0.05,51.95,0)" xlink:href="#K"/><use transform="matrix(0.05,0,0,0.05,56.95,0)" xlink:href="#P"/><use transform="matrix(0.05,0,0,0.05,65.95,0)" xlink:href="#aj"/><use transform="matrix(0.05,0,0,0.05,75.95,0)" xlink:href="#Q"/><use transform="matrix(0.05,0,0,0.05,79.9,0)" xlink:href="#M"/></g><g id="E"><use transform="matrix(0.05,0,0,0.05,0,0)" xlink:href="#ak"/><use transform="matrix(0.05,0,0,0.05,10.950000000000001,0)" xlink:href="#U"/></g><g id="F"><use transform="matrix(0.05,0,0,0.05,0,0)" xlink:href="#ak"/><use transform="matrix(0.05,0,0,0.05,10.950000000000001,0)" xlink:href="#U"/><use transform="matrix(0.05,0,0,0.05,22.950000000000003,0)" xlink:href="#am"/></g><g id="G"><use transform="matrix(0.05,0,0,0.05,0,0)" xlink:href="#ak"/><use transform="matrix(0.05,0,0,0.05,10.950000000000001,0)" xlink:href="#U"/><use transform="matrix(0.05,0,0,0.05,22.950000000000003,0)" xlink:href="#ap"/></g><g id="H"><use transform="matrix(0.05,0,0,0.05,0,0)" xlink:href="#J"/><use transform="matrix(0.05,0,0,0.05,12,0)" xlink:href="#L"/><use transform="matrix(0.05,0,0,0.05,22,0)" xlink:href="#an"/><use transform="matrix(0.05,0,0,0.05,32,0)" xlink:href="#ao"/><use transform="matrix(0.05,0,0,0.05,35.95,0)" xlink:href="#N"/><use transform="matrix(0.05,0,0,0.05,45.95,0)" xlink:href="#aa"/><use transform="matrix(0.05,0,0,0.05,54.95,0)" xlink:href="#K"/><use transform="matrix(0.05,0,0,0.05,59.95,0)" xlink:href="#aq"/><use transform="matrix(0.05,0,0,0.05,68.9,0)" xlink:href="#N"/><use transform="matrix(0.05,0,0,0.05,78.9,0)" xlink:href="#X"/><use transform="matrix(0.05,0,0,0.05,88.9,0)" xlink:href="#aa"/><use transform="matrix(0.05,0,0,0.05,97.9,0)" xlink:href="#ab"/><use transform="matrix(0.05,0,0,0.05,107.9,0)" xlink:href="#N"/><use transform="matrix(0.05,0,0,0.05,117.9,0)" xlink:href="#W"/><use transform="matrix(0.05,0,0,0.05,123.85000000000001,0)" xlink:href="#P"/></g><g id="I"><use transform="matrix(0.05,0,0,0.05,0,0)" xlink:href="#K"/><use transform="matrix(0.05,0,0,0.05,5,0)" xlink:href="#N"/><use transform="matrix(0.05,0,0,0.05,15,0)" xlink:href="#X"/><use transform="matrix(0.05,0,0,0.05,25,0)" xlink:href="#aa"/><use transform="matrix(0.05,0,0,0.05,34,0)" xlink:href="#ab"/><use transform="matrix(0.05,0,0,0.05,44,0)" xlink:href="#N"/><use transform="matrix(0.05,0,0,0.05,54,0)" xlink:href="#W"/><use transform="matrix(0.05,0,0,0.05,59.95,0)" xlink:href="#aj"/><use transform="matrix(0.05,0,0,0.05,69.95,0)" xlink:href="#Q"/><use transform="matrix(0.05,0,0,0.05,73.9,0)" xlink:href="#M"/></g></defs></g></svg>