<?xml version="1.0" encoding="UTF-8" standalone="no"?>
<!DOCTYPE svg PUBLIC "-//W3C//DTD SVG 1.1//EN"
 "http://www.w3.org/Graphics/SVG/1.1/DTD/svg11.dtd">
<!-- Generated by graphviz version 2.38.0 (20140413.2041)
 -->
<!-- Title: G Pages: 1 -->
<svg width="658pt" height="1268pt"
 viewBox="0.00 0.00 658.00 1268.00" xmlns="http://www.w3.org/2000/svg" xmlns:xlink="http://www.w3.org/1999/xlink">
<g id="graph0" class="graph" transform="scale(1 1) rotate(0) translate(4 1264)">
<title>G</title>
<polygon fill="white" stroke="none" points="-4,4 -4,-1264 654,-1264 654,4 -4,4"/>
<!-- 4 -->
<g id="node1" class="node"><title>4</title>
<ellipse fill="none" stroke="black" cx="114" cy="-954" rx="27" ry="18"/>
<text text-anchor="middle" x="114" y="-950.3" font-family="Times,serif" font-size="14.00">(</text>
</g>
<!-- 3 -->
<g id="node2" class="node"><title>3</title>
<ellipse fill="none" stroke="black" cx="191" cy="-1026" rx="42.4939" ry="18"/>
<text text-anchor="middle" x="191" y="-1022.3" font-family="Times,serif" font-size="14.00">UNARY</text>
</g>
<!-- 3&#45;&gt;4 -->
<g id="edge1" class="edge"><title>3&#45;&gt;4</title>
<path fill="none" stroke="black" d="M173.911,-1009.46C163.112,-999.647 149.016,-986.833 137.211,-976.101"/>
<polygon fill="black" stroke="black" points="139.226,-973.203 129.472,-969.066 134.517,-978.382 139.226,-973.203"/>
</g>
<!-- 5 -->
<g id="node13" class="node"><title>5</title>
<ellipse fill="none" stroke="black" cx="191" cy="-954" rx="32.4942" ry="18"/>
<text text-anchor="middle" x="191" y="-950.3" font-family="Times,serif" font-size="14.00">IMPL</text>
</g>
<!-- 3&#45;&gt;5 -->
<g id="edge13" class="edge"><title>3&#45;&gt;5</title>
<path fill="none" stroke="black" d="M191,-1007.7C191,-999.983 191,-990.712 191,-982.112"/>
<polygon fill="black" stroke="black" points="194.5,-982.104 191,-972.104 187.5,-982.104 194.5,-982.104"/>
</g>
<!-- 17 -->
<g id="node15" class="node"><title>17</title>
<ellipse fill="none" stroke="black" cx="268" cy="-954" rx="27" ry="18"/>
<text text-anchor="middle" x="268" y="-950.3" font-family="Times,serif" font-size="14.00">)</text>
</g>
<!-- 3&#45;&gt;17 -->
<g id="edge14" class="edge"><title>3&#45;&gt;17</title>
<path fill="none" stroke="black" d="M208.089,-1009.46C218.888,-999.647 232.984,-986.833 244.789,-976.101"/>
<polygon fill="black" stroke="black" points="247.483,-978.382 252.528,-969.066 242.774,-973.203 247.483,-978.382"/>
</g>
<!-- 9 -->
<g id="node3" class="node"><title>9</title>
<ellipse fill="none" stroke="black" cx="27" cy="-666" rx="27" ry="18"/>
<text text-anchor="middle" x="27" y="-662.3" font-family="Times,serif" font-size="14.00">a</text>
</g>
<!-- 8 -->
<g id="node4" class="node"><title>8</title>
<ellipse fill="none" stroke="black" cx="44" cy="-738" rx="42.4939" ry="18"/>
<text text-anchor="middle" x="44" y="-734.3" font-family="Times,serif" font-size="14.00">UNARY</text>
</g>
<!-- 8&#45;&gt;9 -->
<g id="edge2" class="edge"><title>8&#45;&gt;9</title>
<path fill="none" stroke="black" d="M39.8848,-720.055C37.9919,-712.261 35.6996,-702.822 33.5763,-694.079"/>
<polygon fill="black" stroke="black" points="36.9566,-693.167 31.1954,-684.275 30.1543,-694.819 36.9566,-693.167"/>
</g>
<!-- 7 -->
<g id="node5" class="node"><title>7</title>
<ellipse fill="none" stroke="black" cx="146" cy="-810" rx="29.795" ry="18"/>
<text text-anchor="middle" x="146" y="-806.3" font-family="Times,serif" font-size="14.00">AND</text>
</g>
<!-- 7&#45;&gt;8 -->
<g id="edge3" class="edge"><title>7&#45;&gt;8</title>
<path fill="none" stroke="black" d="M126.815,-795.834C111.973,-785.648 91.1478,-771.356 74.0938,-759.653"/>
<polygon fill="black" stroke="black" points="75.7968,-756.576 65.5712,-753.804 71.8359,-762.348 75.7968,-756.576"/>
</g>
<!-- 10 -->
<g id="node7" class="node"><title>10</title>
<ellipse fill="none" stroke="black" cx="152" cy="-738" rx="31.3957" ry="18"/>
<text text-anchor="middle" x="152" y="-734.3" font-family="Times,serif" font-size="14.00">AND&#39;</text>
</g>
<!-- 7&#45;&gt;10 -->
<g id="edge8" class="edge"><title>7&#45;&gt;10</title>
<path fill="none" stroke="black" d="M147.483,-791.697C148.144,-783.983 148.939,-774.712 149.676,-766.112"/>
<polygon fill="black" stroke="black" points="153.167,-766.367 150.534,-756.104 146.193,-765.769 153.167,-766.367"/>
</g>
<!-- 11 -->
<g id="node6" class="node"><title>11</title>
<ellipse fill="none" stroke="black" cx="99" cy="-666" rx="27" ry="18"/>
<text text-anchor="middle" x="99" y="-662.3" font-family="Times,serif" font-size="14.00">and</text>
</g>
<!-- 10&#45;&gt;11 -->
<g id="edge4" class="edge"><title>10&#45;&gt;11</title>
<path fill="none" stroke="black" d="M139.973,-721.116C133.102,-712.04 124.357,-700.49 116.712,-690.393"/>
<polygon fill="black" stroke="black" points="119.442,-688.2 110.615,-682.34 113.861,-692.426 119.442,-688.2"/>
</g>
<!-- 12 -->
<g id="node9" class="node"><title>12</title>
<ellipse fill="none" stroke="black" cx="186" cy="-666" rx="42.4939" ry="18"/>
<text text-anchor="middle" x="186" y="-662.3" font-family="Times,serif" font-size="14.00">UNARY</text>
</g>
<!-- 10&#45;&gt;12 -->
<g id="edge6" class="edge"><title>10&#45;&gt;12</title>
<path fill="none" stroke="black" d="M160.058,-720.411C164.022,-712.249 168.893,-702.22 173.34,-693.065"/>
<polygon fill="black" stroke="black" points="176.543,-694.48 177.764,-683.956 170.247,-691.422 176.543,-694.48"/>
</g>
<!-- 14 -->
<g id="node10" class="node"><title>14</title>
<ellipse fill="none" stroke="black" cx="277" cy="-666" rx="31.3957" ry="18"/>
<text text-anchor="middle" x="277" y="-662.3" font-family="Times,serif" font-size="14.00">AND&#39;</text>
</g>
<!-- 10&#45;&gt;14 -->
<g id="edge7" class="edge"><title>10&#45;&gt;14</title>
<path fill="none" stroke="black" d="M173.773,-724.807C193.938,-713.515 224.121,-696.612 246.647,-683.997"/>
<polygon fill="black" stroke="black" points="248.461,-686.993 255.476,-679.053 245.041,-680.886 248.461,-686.993"/>
</g>
<!-- 13 -->
<g id="node8" class="node"><title>13</title>
<ellipse fill="none" stroke="black" cx="186" cy="-594" rx="27" ry="18"/>
<text text-anchor="middle" x="186" y="-590.3" font-family="Times,serif" font-size="14.00">b</text>
</g>
<!-- 12&#45;&gt;13 -->
<g id="edge5" class="edge"><title>12&#45;&gt;13</title>
<path fill="none" stroke="black" d="M186,-647.697C186,-639.983 186,-630.712 186,-622.112"/>
<polygon fill="black" stroke="black" points="189.5,-622.104 186,-612.104 182.5,-622.104 189.5,-622.104"/>
</g>
<!-- 6 -->
<g id="node11" class="node"><title>6</title>
<ellipse fill="none" stroke="black" cx="161" cy="-882" rx="27" ry="18"/>
<text text-anchor="middle" x="161" y="-878.3" font-family="Times,serif" font-size="14.00">OR</text>
</g>
<!-- 6&#45;&gt;7 -->
<g id="edge9" class="edge"><title>6&#45;&gt;7</title>
<path fill="none" stroke="black" d="M157.369,-864.055C155.699,-856.261 153.676,-846.822 151.803,-838.079"/>
<polygon fill="black" stroke="black" points="155.22,-837.32 149.702,-828.275 148.375,-838.787 155.22,-837.32"/>
</g>
<!-- 15 -->
<g id="node12" class="node"><title>15</title>
<ellipse fill="none" stroke="black" cx="221" cy="-810" rx="27" ry="18"/>
<text text-anchor="middle" x="221" y="-806.3" font-family="Times,serif" font-size="14.00">OR&#39;</text>
</g>
<!-- 6&#45;&gt;15 -->
<g id="edge10" class="edge"><title>6&#45;&gt;15</title>
<path fill="none" stroke="black" d="M174.019,-865.811C182.039,-856.455 192.473,-844.282 201.47,-833.785"/>
<polygon fill="black" stroke="black" points="204.156,-836.03 208.006,-826.159 198.841,-831.474 204.156,-836.03"/>
</g>
<!-- 5&#45;&gt;6 -->
<g id="edge11" class="edge"><title>5&#45;&gt;6</title>
<path fill="none" stroke="black" d="M183.89,-936.411C180.341,-928.129 175.968,-917.925 171.998,-908.662"/>
<polygon fill="black" stroke="black" points="175.215,-907.283 168.059,-899.47 168.781,-910.04 175.215,-907.283"/>
</g>
<!-- 16 -->
<g id="node14" class="node"><title>16</title>
<ellipse fill="none" stroke="black" cx="240" cy="-882" rx="33.5952" ry="18"/>
<text text-anchor="middle" x="240" y="-878.3" font-family="Times,serif" font-size="14.00">IMPL&#39;</text>
</g>
<!-- 5&#45;&gt;16 -->
<g id="edge12" class="edge"><title>5&#45;&gt;16</title>
<path fill="none" stroke="black" d="M202.365,-936.765C208.425,-928.106 216.009,-917.273 222.777,-907.604"/>
<polygon fill="black" stroke="black" points="225.83,-909.347 228.697,-899.147 220.095,-905.333 225.83,-909.347"/>
</g>
<!-- 2 -->
<g id="node16" class="node"><title>2</title>
<ellipse fill="none" stroke="black" cx="282" cy="-1098" rx="29.795" ry="18"/>
<text text-anchor="middle" x="282" y="-1094.3" font-family="Times,serif" font-size="14.00">AND</text>
</g>
<!-- 2&#45;&gt;3 -->
<g id="edge15" class="edge"><title>2&#45;&gt;3</title>
<path fill="none" stroke="black" d="M264.021,-1083.17C251.118,-1073.24 233.485,-1059.68 218.779,-1048.37"/>
<polygon fill="black" stroke="black" points="220.577,-1045.34 210.517,-1042.01 216.309,-1050.88 220.577,-1045.34"/>
</g>
<!-- 18 -->
<g id="node17" class="node"><title>18</title>
<ellipse fill="none" stroke="black" cx="282" cy="-1026" rx="31.3957" ry="18"/>
<text text-anchor="middle" x="282" y="-1022.3" font-family="Times,serif" font-size="14.00">AND&#39;</text>
</g>
<!-- 2&#45;&gt;18 -->
<g id="edge16" class="edge"><title>2&#45;&gt;18</title>
<path fill="none" stroke="black" d="M282,-1079.7C282,-1071.98 282,-1062.71 282,-1054.11"/>
<polygon fill="black" stroke="black" points="285.5,-1054.1 282,-1044.1 278.5,-1054.1 285.5,-1054.1"/>
</g>
<!-- 1 -->
<g id="node18" class="node"><title>1</title>
<ellipse fill="none" stroke="black" cx="320" cy="-1170" rx="27" ry="18"/>
<text text-anchor="middle" x="320" y="-1166.3" font-family="Times,serif" font-size="14.00">OR</text>
</g>
<!-- 1&#45;&gt;2 -->
<g id="edge17" class="edge"><title>1&#45;&gt;2</title>
<path fill="none" stroke="black" d="M311.187,-1152.76C306.648,-1144.4 301.009,-1134.02 295.9,-1124.61"/>
<polygon fill="black" stroke="black" points="298.877,-1122.75 291.03,-1115.63 292.725,-1126.09 298.877,-1122.75"/>
</g>
<!-- 19 -->
<g id="node20" class="node"><title>19</title>
<ellipse fill="none" stroke="black" cx="395" cy="-1098" rx="27" ry="18"/>
<text text-anchor="middle" x="395" y="-1094.3" font-family="Times,serif" font-size="14.00">OR&#39;</text>
</g>
<!-- 1&#45;&gt;19 -->
<g id="edge56" class="edge"><title>1&#45;&gt;19</title>
<path fill="none" stroke="black" d="M335.177,-1154.83C345.851,-1144.87 360.319,-1131.37 372.353,-1120.14"/>
<polygon fill="black" stroke="black" points="374.923,-1122.53 379.845,-1113.14 370.146,-1117.41 374.923,-1122.53"/>
</g>
<!-- 20 -->
<g id="node19" class="node"><title>20</title>
<ellipse fill="none" stroke="black" cx="358" cy="-1026" rx="27" ry="18"/>
<text text-anchor="middle" x="358" y="-1022.3" font-family="Times,serif" font-size="14.00">or</text>
</g>
<!-- 19&#45;&gt;20 -->
<g id="edge18" class="edge"><title>19&#45;&gt;20</title>
<path fill="none" stroke="black" d="M386.418,-1080.76C381.935,-1072.28 376.349,-1061.71 371.319,-1052.2"/>
<polygon fill="black" stroke="black" points="374.302,-1050.35 366.535,-1043.15 368.114,-1053.62 374.302,-1050.35"/>
</g>
<!-- 21 -->
<g id="node55" class="node"><title>21</title>
<ellipse fill="none" stroke="black" cx="433" cy="-1026" rx="29.795" ry="18"/>
<text text-anchor="middle" x="433" y="-1022.3" font-family="Times,serif" font-size="14.00">AND</text>
</g>
<!-- 19&#45;&gt;21 -->
<g id="edge54" class="edge"><title>19&#45;&gt;21</title>
<path fill="none" stroke="black" d="M403.813,-1080.76C408.352,-1072.4 413.991,-1062.02 419.1,-1052.61"/>
<polygon fill="black" stroke="black" points="422.275,-1054.09 423.97,-1043.63 416.123,-1050.75 422.275,-1054.09"/>
</g>
<!-- 57 -->
<g id="node57" class="node"><title>57</title>
<ellipse fill="none" stroke="black" cx="508" cy="-1026" rx="27" ry="18"/>
<text text-anchor="middle" x="508" y="-1022.3" font-family="Times,serif" font-size="14.00">OR&#39;</text>
</g>
<!-- 19&#45;&gt;57 -->
<g id="edge55" class="edge"><title>19&#45;&gt;57</title>
<path fill="none" stroke="black" d="M414.169,-1085.13C432.27,-1073.91 459.623,-1056.97 480.133,-1044.26"/>
<polygon fill="black" stroke="black" points="482.079,-1047.17 488.737,-1038.93 478.393,-1041.22 482.079,-1047.17"/>
</g>
<!-- 24 -->
<g id="node21" class="node"><title>24</title>
<ellipse fill="none" stroke="black" cx="324" cy="-810" rx="27" ry="18"/>
<text text-anchor="middle" x="324" y="-806.3" font-family="Times,serif" font-size="14.00">(</text>
</g>
<!-- 23 -->
<g id="node22" class="node"><title>23</title>
<ellipse fill="none" stroke="black" cx="401" cy="-882" rx="42.4939" ry="18"/>
<text text-anchor="middle" x="401" y="-878.3" font-family="Times,serif" font-size="14.00">UNARY</text>
</g>
<!-- 23&#45;&gt;24 -->
<g id="edge19" class="edge"><title>23&#45;&gt;24</title>
<path fill="none" stroke="black" d="M383.911,-865.465C373.112,-855.647 359.016,-842.833 347.211,-832.101"/>
<polygon fill="black" stroke="black" points="349.226,-829.203 339.472,-825.066 344.517,-834.382 349.226,-829.203"/>
</g>
<!-- 25 -->
<g id="node51" class="node"><title>25</title>
<ellipse fill="none" stroke="black" cx="401" cy="-810" rx="32.4942" ry="18"/>
<text text-anchor="middle" x="401" y="-806.3" font-family="Times,serif" font-size="14.00">IMPL</text>
</g>
<!-- 23&#45;&gt;25 -->
<g id="edge49" class="edge"><title>23&#45;&gt;25</title>
<path fill="none" stroke="black" d="M401,-863.697C401,-855.983 401,-846.712 401,-838.112"/>
<polygon fill="black" stroke="black" points="404.5,-838.104 401,-828.104 397.5,-838.104 404.5,-838.104"/>
</g>
<!-- 55 -->
<g id="node53" class="node"><title>55</title>
<ellipse fill="none" stroke="black" cx="478" cy="-810" rx="27" ry="18"/>
<text text-anchor="middle" x="478" y="-806.3" font-family="Times,serif" font-size="14.00">)</text>
</g>
<!-- 23&#45;&gt;55 -->
<g id="edge50" class="edge"><title>23&#45;&gt;55</title>
<path fill="none" stroke="black" d="M418.089,-865.465C428.888,-855.647 442.984,-842.833 454.789,-832.101"/>
<polygon fill="black" stroke="black" points="457.483,-834.382 462.528,-825.066 452.774,-829.203 457.483,-834.382"/>
</g>
<!-- 29 -->
<g id="node23" class="node"><title>29</title>
<ellipse fill="none" stroke="black" cx="278" cy="-522" rx="27" ry="18"/>
<text text-anchor="middle" x="278" y="-518.3" font-family="Times,serif" font-size="14.00">c</text>
</g>
<!-- 28 -->
<g id="node24" class="node"><title>28</title>
<ellipse fill="none" stroke="black" cx="278" cy="-594" rx="42.4939" ry="18"/>
<text text-anchor="middle" x="278" y="-590.3" font-family="Times,serif" font-size="14.00">UNARY</text>
</g>
<!-- 28&#45;&gt;29 -->
<g id="edge20" class="edge"><title>28&#45;&gt;29</title>
<path fill="none" stroke="black" d="M278,-575.697C278,-567.983 278,-558.712 278,-550.112"/>
<polygon fill="black" stroke="black" points="281.5,-550.104 278,-540.104 274.5,-550.104 281.5,-550.104"/>
</g>
<!-- 27 -->
<g id="node25" class="node"><title>27</title>
<ellipse fill="none" stroke="black" cx="369" cy="-666" rx="29.795" ry="18"/>
<text text-anchor="middle" x="369" y="-662.3" font-family="Times,serif" font-size="14.00">AND</text>
</g>
<!-- 27&#45;&gt;28 -->
<g id="edge21" class="edge"><title>27&#45;&gt;28</title>
<path fill="none" stroke="black" d="M351.021,-651.17C338.118,-641.245 320.485,-627.681 305.779,-616.369"/>
<polygon fill="black" stroke="black" points="307.577,-613.336 297.517,-610.013 303.309,-618.884 307.577,-613.336"/>
</g>
<!-- 30 -->
<g id="node26" class="node"><title>30</title>
<ellipse fill="none" stroke="black" cx="369" cy="-594" rx="31.3957" ry="18"/>
<text text-anchor="middle" x="369" y="-590.3" font-family="Times,serif" font-size="14.00">AND&#39;</text>
</g>
<!-- 27&#45;&gt;30 -->
<g id="edge22" class="edge"><title>27&#45;&gt;30</title>
<path fill="none" stroke="black" d="M369,-647.697C369,-639.983 369,-630.712 369,-622.112"/>
<polygon fill="black" stroke="black" points="372.5,-622.104 369,-612.104 365.5,-622.104 372.5,-622.104"/>
</g>
<!-- 26 -->
<g id="node27" class="node"><title>26</title>
<ellipse fill="none" stroke="black" cx="380" cy="-738" rx="27" ry="18"/>
<text text-anchor="middle" x="380" y="-734.3" font-family="Times,serif" font-size="14.00">OR</text>
</g>
<!-- 26&#45;&gt;27 -->
<g id="edge23" class="edge"><title>26&#45;&gt;27</title>
<path fill="none" stroke="black" d="M377.337,-720.055C376.126,-712.346 374.661,-703.027 373.3,-694.364"/>
<polygon fill="black" stroke="black" points="376.725,-693.611 371.715,-684.275 369.81,-694.697 376.725,-693.611"/>
</g>
<!-- 31 -->
<g id="node29" class="node"><title>31</title>
<ellipse fill="none" stroke="black" cx="482" cy="-666" rx="27" ry="18"/>
<text text-anchor="middle" x="482" y="-662.3" font-family="Times,serif" font-size="14.00">OR&#39;</text>
</g>
<!-- 26&#45;&gt;31 -->
<g id="edge46" class="edge"><title>26&#45;&gt;31</title>
<path fill="none" stroke="black" d="M398.236,-724.485C414.191,-713.536 437.565,-697.495 455.571,-685.138"/>
<polygon fill="black" stroke="black" points="457.658,-687.951 463.922,-679.406 453.697,-682.179 457.658,-687.951"/>
</g>
<!-- 32 -->
<g id="node28" class="node"><title>32</title>
<ellipse fill="none" stroke="black" cx="445" cy="-594" rx="27" ry="18"/>
<text text-anchor="middle" x="445" y="-590.3" font-family="Times,serif" font-size="14.00">xor</text>
</g>
<!-- 31&#45;&gt;32 -->
<g id="edge24" class="edge"><title>31&#45;&gt;32</title>
<path fill="none" stroke="black" d="M473.418,-648.765C468.935,-640.283 463.349,-629.714 458.319,-620.197"/>
<polygon fill="black" stroke="black" points="461.302,-618.353 453.535,-611.147 455.114,-621.624 461.302,-618.353"/>
</g>
<!-- 33 -->
<g id="node48" class="node"><title>33</title>
<ellipse fill="none" stroke="black" cx="520" cy="-594" rx="29.795" ry="18"/>
<text text-anchor="middle" x="520" y="-590.3" font-family="Times,serif" font-size="14.00">AND</text>
</g>
<!-- 31&#45;&gt;33 -->
<g id="edge44" class="edge"><title>31&#45;&gt;33</title>
<path fill="none" stroke="black" d="M490.813,-648.765C495.352,-640.404 500.991,-630.016 506.1,-620.606"/>
<polygon fill="black" stroke="black" points="509.275,-622.092 510.97,-611.633 503.123,-618.752 509.275,-622.092"/>
</g>
<!-- 53 -->
<g id="node50" class="node"><title>53</title>
<ellipse fill="none" stroke="black" cx="595" cy="-594" rx="27" ry="18"/>
<text text-anchor="middle" x="595" y="-590.3" font-family="Times,serif" font-size="14.00">OR&#39;</text>
</g>
<!-- 31&#45;&gt;53 -->
<g id="edge45" class="edge"><title>31&#45;&gt;53</title>
<path fill="none" stroke="black" d="M501.169,-653.125C519.27,-641.913 546.623,-624.968 567.133,-612.263"/>
<polygon fill="black" stroke="black" points="569.079,-615.174 575.737,-606.933 565.393,-609.224 569.079,-615.174"/>
</g>
<!-- 35 -->
<g id="node30" class="node"><title>35</title>
<ellipse fill="none" stroke="black" cx="397" cy="-450" rx="27" ry="18"/>
<text text-anchor="middle" x="397" y="-446.3" font-family="Times,serif" font-size="14.00">(</text>
</g>
<!-- 34 -->
<g id="node31" class="node"><title>34</title>
<ellipse fill="none" stroke="black" cx="474" cy="-522" rx="42.4939" ry="18"/>
<text text-anchor="middle" x="474" y="-518.3" font-family="Times,serif" font-size="14.00">UNARY</text>
</g>
<!-- 34&#45;&gt;35 -->
<g id="edge25" class="edge"><title>34&#45;&gt;35</title>
<path fill="none" stroke="black" d="M456.911,-505.465C446.112,-495.647 432.016,-482.833 420.211,-472.101"/>
<polygon fill="black" stroke="black" points="422.226,-469.203 412.472,-465.066 417.517,-474.382 422.226,-469.203"/>
</g>
<!-- 36 -->
<g id="node45" class="node"><title>36</title>
<ellipse fill="none" stroke="black" cx="474" cy="-450" rx="32.4942" ry="18"/>
<text text-anchor="middle" x="474" y="-446.3" font-family="Times,serif" font-size="14.00">IMPL</text>
</g>
<!-- 34&#45;&gt;36 -->
<g id="edge40" class="edge"><title>34&#45;&gt;36</title>
<path fill="none" stroke="black" d="M474,-503.697C474,-495.983 474,-486.712 474,-478.112"/>
<polygon fill="black" stroke="black" points="477.5,-478.104 474,-468.104 470.5,-478.104 477.5,-478.104"/>
</g>
<!-- 51 -->
<g id="node47" class="node"><title>51</title>
<ellipse fill="none" stroke="black" cx="551" cy="-450" rx="27" ry="18"/>
<text text-anchor="middle" x="551" y="-446.3" font-family="Times,serif" font-size="14.00">)</text>
</g>
<!-- 34&#45;&gt;51 -->
<g id="edge41" class="edge"><title>34&#45;&gt;51</title>
<path fill="none" stroke="black" d="M491.089,-505.465C501.888,-495.647 515.984,-482.833 527.789,-472.101"/>
<polygon fill="black" stroke="black" points="530.483,-474.382 535.528,-465.066 525.774,-469.203 530.483,-474.382"/>
</g>
<!-- 40 -->
<g id="node32" class="node"><title>40</title>
<ellipse fill="none" stroke="black" cx="306" cy="-162" rx="27" ry="18"/>
<text text-anchor="middle" x="306" y="-158.3" font-family="Times,serif" font-size="14.00">a</text>
</g>
<!-- 39 -->
<g id="node33" class="node"><title>39</title>
<ellipse fill="none" stroke="black" cx="306" cy="-234" rx="42.4939" ry="18"/>
<text text-anchor="middle" x="306" y="-230.3" font-family="Times,serif" font-size="14.00">UNARY</text>
</g>
<!-- 39&#45;&gt;40 -->
<g id="edge26" class="edge"><title>39&#45;&gt;40</title>
<path fill="none" stroke="black" d="M306,-215.697C306,-207.983 306,-198.712 306,-190.112"/>
<polygon fill="black" stroke="black" points="309.5,-190.104 306,-180.104 302.5,-190.104 309.5,-190.104"/>
</g>
<!-- 38 -->
<g id="node34" class="node"><title>38</title>
<ellipse fill="none" stroke="black" cx="397" cy="-306" rx="29.795" ry="18"/>
<text text-anchor="middle" x="397" y="-302.3" font-family="Times,serif" font-size="14.00">AND</text>
</g>
<!-- 38&#45;&gt;39 -->
<g id="edge27" class="edge"><title>38&#45;&gt;39</title>
<path fill="none" stroke="black" d="M379.021,-291.17C366.118,-281.245 348.485,-267.681 333.779,-256.369"/>
<polygon fill="black" stroke="black" points="335.577,-253.336 325.517,-250.013 331.309,-258.884 335.577,-253.336"/>
</g>
<!-- 41 -->
<g id="node35" class="node"><title>41</title>
<ellipse fill="none" stroke="black" cx="397" cy="-234" rx="31.3957" ry="18"/>
<text text-anchor="middle" x="397" y="-230.3" font-family="Times,serif" font-size="14.00">AND&#39;</text>
</g>
<!-- 38&#45;&gt;41 -->
<g id="edge28" class="edge"><title>38&#45;&gt;41</title>
<path fill="none" stroke="black" d="M397,-287.697C397,-279.983 397,-270.712 397,-262.112"/>
<polygon fill="black" stroke="black" points="400.5,-262.104 397,-252.104 393.5,-262.104 400.5,-262.104"/>
</g>
<!-- 37 -->
<g id="node36" class="node"><title>37</title>
<ellipse fill="none" stroke="black" cx="435" cy="-378" rx="27" ry="18"/>
<text text-anchor="middle" x="435" y="-374.3" font-family="Times,serif" font-size="14.00">OR</text>
</g>
<!-- 37&#45;&gt;38 -->
<g id="edge29" class="edge"><title>37&#45;&gt;38</title>
<path fill="none" stroke="black" d="M426.187,-360.765C421.648,-352.404 416.009,-342.016 410.9,-332.606"/>
<polygon fill="black" stroke="black" points="413.877,-330.752 406.03,-323.633 407.725,-334.092 413.877,-330.752"/>
</g>
<!-- 42 -->
<g id="node38" class="node"><title>42</title>
<ellipse fill="none" stroke="black" cx="510" cy="-306" rx="27" ry="18"/>
<text text-anchor="middle" x="510" y="-302.3" font-family="Times,serif" font-size="14.00">OR&#39;</text>
</g>
<!-- 37&#45;&gt;42 -->
<g id="edge37" class="edge"><title>37&#45;&gt;42</title>
<path fill="none" stroke="black" d="M450.177,-362.834C460.851,-352.872 475.319,-339.369 487.353,-328.137"/>
<polygon fill="black" stroke="black" points="489.923,-330.526 494.845,-321.144 485.146,-325.409 489.923,-330.526"/>
</g>
<!-- 43 -->
<g id="node37" class="node"><title>43</title>
<ellipse fill="none" stroke="black" cx="473" cy="-234" rx="27" ry="18"/>
<text text-anchor="middle" x="473" y="-230.3" font-family="Times,serif" font-size="14.00">or</text>
</g>
<!-- 42&#45;&gt;43 -->
<g id="edge30" class="edge"><title>42&#45;&gt;43</title>
<path fill="none" stroke="black" d="M501.418,-288.765C496.935,-280.283 491.349,-269.714 486.319,-260.197"/>
<polygon fill="black" stroke="black" points="489.302,-258.353 481.535,-251.147 483.114,-261.624 489.302,-258.353"/>
</g>
<!-- 44 -->
<g id="node42" class="node"><title>44</title>
<ellipse fill="none" stroke="black" cx="548" cy="-234" rx="29.795" ry="18"/>
<text text-anchor="middle" x="548" y="-230.3" font-family="Times,serif" font-size="14.00">AND</text>
</g>
<!-- 42&#45;&gt;44 -->
<g id="edge35" class="edge"><title>42&#45;&gt;44</title>
<path fill="none" stroke="black" d="M518.813,-288.765C523.352,-280.404 528.991,-270.016 534.1,-260.606"/>
<polygon fill="black" stroke="black" points="537.275,-262.092 538.97,-251.633 531.123,-258.752 537.275,-262.092"/>
</g>
<!-- 49 -->
<g id="node44" class="node"><title>49</title>
<ellipse fill="none" stroke="black" cx="623" cy="-234" rx="27" ry="18"/>
<text text-anchor="middle" x="623" y="-230.3" font-family="Times,serif" font-size="14.00">OR&#39;</text>
</g>
<!-- 42&#45;&gt;49 -->
<g id="edge36" class="edge"><title>42&#45;&gt;49</title>
<path fill="none" stroke="black" d="M529.169,-293.125C547.27,-281.913 574.623,-264.968 595.133,-252.263"/>
<polygon fill="black" stroke="black" points="597.079,-255.174 603.737,-246.933 593.393,-249.224 597.079,-255.174"/>
</g>
<!-- 47 -->
<g id="node39" class="node"><title>47</title>
<ellipse fill="none" stroke="black" cx="502" cy="-18" rx="27" ry="18"/>
<text text-anchor="middle" x="502" y="-14.3" font-family="Times,serif" font-size="14.00">b</text>
</g>
<!-- 46 -->
<g id="node40" class="node"><title>46</title>
<ellipse fill="none" stroke="black" cx="502" cy="-90" rx="42.4939" ry="18"/>
<text text-anchor="middle" x="502" y="-86.3" font-family="Times,serif" font-size="14.00">UNARY</text>
</g>
<!-- 46&#45;&gt;47 -->
<g id="edge31" class="edge"><title>46&#45;&gt;47</title>
<path fill="none" stroke="black" d="M502,-71.6966C502,-63.9827 502,-54.7125 502,-46.1124"/>
<polygon fill="black" stroke="black" points="505.5,-46.1043 502,-36.1043 498.5,-46.1044 505.5,-46.1043"/>
</g>
<!-- 45 -->
<g id="node41" class="node"><title>45</title>
<ellipse fill="none" stroke="black" cx="502" cy="-162" rx="42.4939" ry="18"/>
<text text-anchor="middle" x="502" y="-158.3" font-family="Times,serif" font-size="14.00">UNARY</text>
</g>
<!-- 45&#45;&gt;46 -->
<g id="edge32" class="edge"><title>45&#45;&gt;46</title>
<path fill="none" stroke="black" d="M502,-143.697C502,-135.983 502,-126.712 502,-118.112"/>
<polygon fill="black" stroke="black" points="505.5,-118.104 502,-108.104 498.5,-118.104 505.5,-118.104"/>
</g>
<!-- 44&#45;&gt;45 -->
<g id="edge33" class="edge"><title>44&#45;&gt;45</title>
<path fill="none" stroke="black" d="M537.562,-217.116C531.96,-208.592 524.925,-197.886 518.594,-188.251"/>
<polygon fill="black" stroke="black" points="521.455,-186.232 513.038,-179.797 515.605,-190.077 521.455,-186.232"/>
</g>
<!-- 48 -->
<g id="node43" class="node"><title>48</title>
<ellipse fill="none" stroke="black" cx="593" cy="-162" rx="31.3957" ry="18"/>
<text text-anchor="middle" x="593" y="-158.3" font-family="Times,serif" font-size="14.00">AND&#39;</text>
</g>
<!-- 44&#45;&gt;48 -->
<g id="edge34" class="edge"><title>44&#45;&gt;48</title>
<path fill="none" stroke="black" d="M558.437,-216.765C564.003,-208.106 570.967,-197.273 577.183,-187.604"/>
<polygon fill="black" stroke="black" points="580.156,-189.452 582.62,-179.147 574.268,-185.666 580.156,-189.452"/>
</g>
<!-- 36&#45;&gt;37 -->
<g id="edge38" class="edge"><title>36&#45;&gt;37</title>
<path fill="none" stroke="black" d="M464.758,-432.411C460.095,-424.042 454.338,-413.71 449.135,-404.37"/>
<polygon fill="black" stroke="black" points="452.101,-402.502 444.176,-395.47 445.986,-405.909 452.101,-402.502"/>
</g>
<!-- 50 -->
<g id="node46" class="node"><title>50</title>
<ellipse fill="none" stroke="black" cx="514" cy="-378" rx="33.5952" ry="18"/>
<text text-anchor="middle" x="514" y="-374.3" font-family="Times,serif" font-size="14.00">IMPL&#39;</text>
</g>
<!-- 36&#45;&gt;50 -->
<g id="edge39" class="edge"><title>36&#45;&gt;50</title>
<path fill="none" stroke="black" d="M483.479,-432.411C488.262,-424.042 494.166,-413.71 499.503,-404.37"/>
<polygon fill="black" stroke="black" points="502.666,-405.889 504.589,-395.47 496.588,-402.416 502.666,-405.889"/>
</g>
<!-- 33&#45;&gt;34 -->
<g id="edge42" class="edge"><title>33&#45;&gt;34</title>
<path fill="none" stroke="black" d="M509.562,-577.116C503.96,-568.592 496.925,-557.886 490.594,-548.251"/>
<polygon fill="black" stroke="black" points="493.455,-546.232 485.038,-539.797 487.605,-550.077 493.455,-546.232"/>
</g>
<!-- 52 -->
<g id="node49" class="node"><title>52</title>
<ellipse fill="none" stroke="black" cx="565" cy="-522" rx="31.3957" ry="18"/>
<text text-anchor="middle" x="565" y="-518.3" font-family="Times,serif" font-size="14.00">AND&#39;</text>
</g>
<!-- 33&#45;&gt;52 -->
<g id="edge43" class="edge"><title>33&#45;&gt;52</title>
<path fill="none" stroke="black" d="M530.437,-576.765C536.003,-568.106 542.967,-557.273 549.183,-547.604"/>
<polygon fill="black" stroke="black" points="552.156,-549.452 554.62,-539.147 546.268,-545.666 552.156,-549.452"/>
</g>
<!-- 25&#45;&gt;26 -->
<g id="edge47" class="edge"><title>25&#45;&gt;26</title>
<path fill="none" stroke="black" d="M395.916,-792.055C393.518,-784.059 390.599,-774.331 387.92,-765.4"/>
<polygon fill="black" stroke="black" points="391.263,-764.362 385.037,-755.789 384.558,-766.373 391.263,-764.362"/>
</g>
<!-- 54 -->
<g id="node52" class="node"><title>54</title>
<ellipse fill="none" stroke="black" cx="459" cy="-738" rx="33.5952" ry="18"/>
<text text-anchor="middle" x="459" y="-734.3" font-family="Times,serif" font-size="14.00">IMPL&#39;</text>
</g>
<!-- 25&#45;&gt;54 -->
<g id="edge48" class="edge"><title>25&#45;&gt;54</title>
<path fill="none" stroke="black" d="M413.872,-793.465C421.351,-784.439 430.928,-772.88 439.334,-762.735"/>
<polygon fill="black" stroke="black" points="442.077,-764.91 445.762,-754.977 436.686,-760.444 442.077,-764.91"/>
</g>
<!-- 22 -->
<g id="node54" class="node"><title>22</title>
<ellipse fill="none" stroke="black" cx="401" cy="-954" rx="42.4939" ry="18"/>
<text text-anchor="middle" x="401" y="-950.3" font-family="Times,serif" font-size="14.00">UNARY</text>
</g>
<!-- 22&#45;&gt;23 -->
<g id="edge51" class="edge"><title>22&#45;&gt;23</title>
<path fill="none" stroke="black" d="M401,-935.697C401,-927.983 401,-918.712 401,-910.112"/>
<polygon fill="black" stroke="black" points="404.5,-910.104 401,-900.104 397.5,-910.104 404.5,-910.104"/>
</g>
<!-- 21&#45;&gt;22 -->
<g id="edge52" class="edge"><title>21&#45;&gt;22</title>
<path fill="none" stroke="black" d="M425.416,-1008.41C421.685,-1000.25 417.101,-990.22 412.916,-981.065"/>
<polygon fill="black" stroke="black" points="416.092,-979.596 408.751,-971.956 409.726,-982.506 416.092,-979.596"/>
</g>
<!-- 56 -->
<g id="node56" class="node"><title>56</title>
<ellipse fill="none" stroke="black" cx="492" cy="-954" rx="31.3957" ry="18"/>
<text text-anchor="middle" x="492" y="-950.3" font-family="Times,serif" font-size="14.00">AND&#39;</text>
</g>
<!-- 21&#45;&gt;56 -->
<g id="edge53" class="edge"><title>21&#45;&gt;56</title>
<path fill="none" stroke="black" d="M446.094,-1009.46C453.809,-1000.31 463.719,-988.554 472.355,-978.307"/>
<polygon fill="black" stroke="black" points="475.174,-980.394 478.943,-970.492 469.822,-975.882 475.174,-980.394"/>
</g>
<!-- 0 -->
<g id="node58" class="node"><title>0</title>
<ellipse fill="none" stroke="black" cx="359" cy="-1242" rx="32.4942" ry="18"/>
<text text-anchor="middle" x="359" y="-1238.3" font-family="Times,serif" font-size="14.00">IMPL</text>
</g>
<!-- 0&#45;&gt;1 -->
<g id="edge57" class="edge"><title>0&#45;&gt;1</title>
<path fill="none" stroke="black" d="M349.758,-1224.41C345.095,-1216.04 339.338,-1205.71 334.135,-1196.37"/>
<polygon fill="black" stroke="black" points="337.101,-1194.5 329.176,-1187.47 330.986,-1197.91 337.101,-1194.5"/>
</g>
<!-- 58 -->
<g id="node59" class="node"><title>58</title>
<ellipse fill="none" stroke="black" cx="399" cy="-1170" rx="33.5952" ry="18"/>
<text text-anchor="middle" x="399" y="-1166.3" font-family="Times,serif" font-size="14.00">IMPL&#39;</text>
</g>
<!-- 0&#45;&gt;58 -->
<g id="edge58" class="edge"><title>0&#45;&gt;58</title>
<path fill="none" stroke="black" d="M368.479,-1224.41C373.262,-1216.04 379.166,-1205.71 384.503,-1196.37"/>
<polygon fill="black" stroke="black" points="387.666,-1197.89 389.589,-1187.47 381.588,-1194.42 387.666,-1197.89"/>
</g>
</g>
</svg>
