<?xml version="1.0" encoding="UTF-8" standalone="no"?>
<!DOCTYPE svg PUBLIC "-//W3C//DTD SVG 1.1//EN"
 "http://www.w3.org/Graphics/SVG/1.1/DTD/svg11.dtd">
<!-- Generated by graphviz version 2.38.0 (20140413.2041)
 -->
<!-- Title: G Pages: 1 -->
<svg width="859pt" height="692pt"
 viewBox="0.00 0.00 859.44 692.00" xmlns="http://www.w3.org/2000/svg" xmlns:xlink="http://www.w3.org/1999/xlink">
<g id="graph0" class="graph" transform="scale(1 1) rotate(0) translate(4 688)">
<title>G</title>
<polygon fill="white" stroke="none" points="-4,4 -4,-688 855.443,-688 855.443,4 -4,4"/>
<!-- 4 -->
<g id="node1" class="node"><title>4</title>
<ellipse fill="none" stroke="black" cx="40.2463" cy="-378" rx="27" ry="18"/>
<text text-anchor="middle" x="40.2463" y="-374.3" font-family="Times,serif" font-size="14.00">a</text>
</g>
<!-- 3 -->
<g id="node2" class="node"><title>3</title>
<ellipse fill="none" stroke="black" cx="42.2463" cy="-450" rx="42.4939" ry="18"/>
<text text-anchor="middle" x="42.2463" y="-446.3" font-family="Times,serif" font-size="14.00">UNARY</text>
</g>
<!-- 3&#45;&gt;4 -->
<g id="edge1" class="edge"><title>3&#45;&gt;4</title>
<path fill="none" stroke="black" d="M41.7519,-431.697C41.5315,-423.983 41.2666,-414.712 41.0209,-406.112"/>
<polygon fill="black" stroke="black" points="44.5192,-406 40.7349,-396.104 37.5221,-406.2 44.5192,-406"/>
</g>
<!-- 2 -->
<g id="node3" class="node"><title>2</title>
<ellipse fill="none" stroke="black" cx="137.246" cy="-522" rx="29.795" ry="18"/>
<text text-anchor="middle" x="137.246" y="-518.3" font-family="Times,serif" font-size="14.00">AND</text>
</g>
<!-- 2&#45;&gt;3 -->
<g id="edge2" class="edge"><title>2&#45;&gt;3</title>
<path fill="none" stroke="black" d="M118.929,-507.503C105.281,-497.447 86.3855,-483.524 70.7665,-472.015"/>
<polygon fill="black" stroke="black" points="72.6073,-469.024 62.4805,-465.909 68.4549,-474.659 72.6073,-469.024"/>
</g>
<!-- 5 -->
<g id="node4" class="node"><title>5</title>
<ellipse fill="none" stroke="black" cx="137.246" cy="-450" rx="31.3957" ry="18"/>
<text text-anchor="middle" x="137.246" y="-446.3" font-family="Times,serif" font-size="14.00">AND&#39;</text>
</g>
<!-- 2&#45;&gt;5 -->
<g id="edge3" class="edge"><title>2&#45;&gt;5</title>
<path fill="none" stroke="black" d="M137.246,-503.697C137.246,-495.983 137.246,-486.712 137.246,-478.112"/>
<polygon fill="black" stroke="black" points="140.746,-478.104 137.246,-468.104 133.746,-478.104 140.746,-478.104"/>
</g>
<!-- 1 -->
<g id="node5" class="node"><title>1</title>
<ellipse fill="none" stroke="black" cx="217.246" cy="-594" rx="27" ry="18"/>
<text text-anchor="middle" x="217.246" y="-590.3" font-family="Times,serif" font-size="14.00">OR</text>
</g>
<!-- 1&#45;&gt;2 -->
<g id="edge4" class="edge"><title>1&#45;&gt;2</title>
<path fill="none" stroke="black" d="M201.441,-579.17C189.977,-569.14 174.267,-555.393 161.257,-544.01"/>
<polygon fill="black" stroke="black" points="163.399,-541.233 153.568,-537.282 158.789,-546.501 163.399,-541.233"/>
</g>
<!-- 6 -->
<g id="node6" class="node"><title>6</title>
<ellipse fill="none" stroke="black" cx="217.246" cy="-522" rx="27" ry="18"/>
<text text-anchor="middle" x="217.246" y="-518.3" font-family="Times,serif" font-size="14.00">OR&#39;</text>
</g>
<!-- 1&#45;&gt;6 -->
<g id="edge5" class="edge"><title>1&#45;&gt;6</title>
<path fill="none" stroke="black" d="M217.246,-575.697C217.246,-567.983 217.246,-558.712 217.246,-550.112"/>
<polygon fill="black" stroke="black" points="220.746,-550.104 217.246,-540.104 213.746,-550.104 220.746,-550.104"/>
</g>
<!-- 0 -->
<g id="node7" class="node"><title>0</title>
<ellipse fill="none" stroke="black" cx="257.246" cy="-666" rx="32.4942" ry="18"/>
<text text-anchor="middle" x="257.246" y="-662.3" font-family="Times,serif" font-size="14.00">IMPL</text>
</g>
<!-- 0&#45;&gt;1 -->
<g id="edge6" class="edge"><title>0&#45;&gt;1</title>
<path fill="none" stroke="black" d="M247.767,-648.411C242.915,-639.921 236.909,-629.41 231.512,-619.964"/>
<polygon fill="black" stroke="black" points="234.383,-617.934 226.382,-610.988 228.305,-621.407 234.383,-617.934"/>
</g>
<!-- 7 -->
<g id="node9" class="node"><title>7</title>
<ellipse fill="none" stroke="black" cx="297.246" cy="-594" rx="33.5952" ry="18"/>
<text text-anchor="middle" x="297.246" y="-590.3" font-family="Times,serif" font-size="14.00">IMPL&#39;</text>
</g>
<!-- 0&#45;&gt;7 -->
<g id="edge40" class="edge"><title>0&#45;&gt;7</title>
<path fill="none" stroke="black" d="M266.726,-648.411C271.508,-640.042 277.412,-629.71 282.749,-620.37"/>
<polygon fill="black" stroke="black" points="285.912,-621.889 287.835,-611.47 279.835,-618.416 285.912,-621.889"/>
</g>
<!-- 8 -->
<g id="node8" class="node"><title>8</title>
<ellipse fill="none" stroke="black" cx="293.246" cy="-522" rx="27.0966" ry="18"/>
<text text-anchor="middle" x="293.246" y="-518.3" font-family="Times,serif" font-size="14.00">impl</text>
</g>
<!-- 7&#45;&gt;8 -->
<g id="edge7" class="edge"><title>7&#45;&gt;8</title>
<path fill="none" stroke="black" d="M296.257,-575.697C295.817,-567.983 295.287,-558.712 294.796,-550.112"/>
<polygon fill="black" stroke="black" points="298.289,-549.888 294.224,-540.104 291.3,-550.288 298.289,-549.888"/>
</g>
<!-- 9 -->
<g id="node14" class="node"><title>9</title>
<ellipse fill="none" stroke="black" cx="365.246" cy="-522" rx="27" ry="18"/>
<text text-anchor="middle" x="365.246" y="-518.3" font-family="Times,serif" font-size="14.00">OR</text>
</g>
<!-- 7&#45;&gt;9 -->
<g id="edge19" class="edge"><title>7&#45;&gt;9</title>
<path fill="none" stroke="black" d="M312.338,-577.465C321.657,-567.871 333.756,-555.416 344.032,-544.839"/>
<polygon fill="black" stroke="black" points="346.668,-547.147 351.126,-537.536 341.647,-542.27 346.668,-547.147"/>
</g>
<!-- 21 -->
<g id="node23" class="node"><title>21</title>
<ellipse fill="none" stroke="black" cx="499.246" cy="-522" rx="33.5952" ry="18"/>
<text text-anchor="middle" x="499.246" y="-518.3" font-family="Times,serif" font-size="14.00">IMPL&#39;</text>
</g>
<!-- 7&#45;&gt;21 -->
<g id="edge39" class="edge"><title>7&#45;&gt;21</title>
<path fill="none" stroke="black" d="M324.91,-583.414C360.471,-571.09 422.348,-549.648 462.016,-535.902"/>
<polygon fill="black" stroke="black" points="463.291,-539.164 471.593,-532.583 460.998,-532.55 463.291,-539.164"/>
</g>
<!-- 12 -->
<g id="node10" class="node"><title>12</title>
<ellipse fill="none" stroke="black" cx="127.246" cy="-306" rx="27" ry="18"/>
<text text-anchor="middle" x="127.246" y="-302.3" font-family="Times,serif" font-size="14.00">b</text>
</g>
<!-- 11 -->
<g id="node11" class="node"><title>11</title>
<ellipse fill="none" stroke="black" cx="127.246" cy="-378" rx="42.4939" ry="18"/>
<text text-anchor="middle" x="127.246" y="-374.3" font-family="Times,serif" font-size="14.00">UNARY</text>
</g>
<!-- 11&#45;&gt;12 -->
<g id="edge8" class="edge"><title>11&#45;&gt;12</title>
<path fill="none" stroke="black" d="M127.246,-359.697C127.246,-351.983 127.246,-342.712 127.246,-334.112"/>
<polygon fill="black" stroke="black" points="130.746,-334.104 127.246,-324.104 123.746,-334.104 130.746,-334.104"/>
</g>
<!-- 10 -->
<g id="node12" class="node"><title>10</title>
<ellipse fill="none" stroke="black" cx="218.246" cy="-450" rx="29.795" ry="18"/>
<text text-anchor="middle" x="218.246" y="-446.3" font-family="Times,serif" font-size="14.00">AND</text>
</g>
<!-- 10&#45;&gt;11 -->
<g id="edge9" class="edge"><title>10&#45;&gt;11</title>
<path fill="none" stroke="black" d="M200.268,-435.17C187.364,-425.245 169.731,-411.681 155.025,-400.369"/>
<polygon fill="black" stroke="black" points="156.823,-397.336 146.763,-394.013 152.555,-402.884 156.823,-397.336"/>
</g>
<!-- 13 -->
<g id="node13" class="node"><title>13</title>
<ellipse fill="none" stroke="black" cx="218.246" cy="-378" rx="31.3957" ry="18"/>
<text text-anchor="middle" x="218.246" y="-374.3" font-family="Times,serif" font-size="14.00">AND&#39;</text>
</g>
<!-- 10&#45;&gt;13 -->
<g id="edge10" class="edge"><title>10&#45;&gt;13</title>
<path fill="none" stroke="black" d="M218.246,-431.697C218.246,-423.983 218.246,-414.712 218.246,-406.112"/>
<polygon fill="black" stroke="black" points="221.746,-406.104 218.246,-396.104 214.746,-406.104 221.746,-406.104"/>
</g>
<!-- 9&#45;&gt;10 -->
<g id="edge11" class="edge"><title>9&#45;&gt;10</title>
<path fill="none" stroke="black" d="M343.871,-510.821C319.261,-499.102 278.587,-479.734 250.21,-466.221"/>
<polygon fill="black" stroke="black" points="251.632,-463.022 241.099,-461.882 248.623,-469.342 251.632,-463.022"/>
</g>
<!-- 14 -->
<g id="node16" class="node"><title>14</title>
<ellipse fill="none" stroke="black" cx="367.246" cy="-450" rx="27" ry="18"/>
<text text-anchor="middle" x="367.246" y="-446.3" font-family="Times,serif" font-size="14.00">OR&#39;</text>
</g>
<!-- 9&#45;&gt;14 -->
<g id="edge18" class="edge"><title>9&#45;&gt;14</title>
<path fill="none" stroke="black" d="M365.741,-503.697C365.961,-495.983 366.226,-486.712 366.472,-478.112"/>
<polygon fill="black" stroke="black" points="369.97,-478.2 366.758,-468.104 362.973,-478 369.97,-478.2"/>
</g>
<!-- 15 -->
<g id="node15" class="node"><title>15</title>
<ellipse fill="none" stroke="black" cx="294.246" cy="-378" rx="27" ry="18"/>
<text text-anchor="middle" x="294.246" y="-374.3" font-family="Times,serif" font-size="14.00">or</text>
</g>
<!-- 14&#45;&gt;15 -->
<g id="edge12" class="edge"><title>14&#45;&gt;15</title>
<path fill="none" stroke="black" d="M352.474,-434.834C342.084,-424.872 328.002,-411.369 316.289,-400.137"/>
<polygon fill="black" stroke="black" points="318.637,-397.539 308.997,-393.144 313.792,-402.592 318.637,-397.539"/>
</g>
<!-- 16 -->
<g id="node19" class="node"><title>16</title>
<ellipse fill="none" stroke="black" cx="369.246" cy="-378" rx="29.795" ry="18"/>
<text text-anchor="middle" x="369.246" y="-374.3" font-family="Times,serif" font-size="14.00">AND</text>
</g>
<!-- 14&#45;&gt;16 -->
<g id="edge16" class="edge"><title>14&#45;&gt;16</title>
<path fill="none" stroke="black" d="M367.741,-431.697C367.961,-423.983 368.226,-414.712 368.472,-406.112"/>
<polygon fill="black" stroke="black" points="371.97,-406.2 368.758,-396.104 364.973,-406 371.97,-406.2"/>
</g>
<!-- 20 -->
<g id="node21" class="node"><title>20</title>
<ellipse fill="none" stroke="black" cx="444.246" cy="-378" rx="27" ry="18"/>
<text text-anchor="middle" x="444.246" y="-374.3" font-family="Times,serif" font-size="14.00">OR&#39;</text>
</g>
<!-- 14&#45;&gt;20 -->
<g id="edge17" class="edge"><title>14&#45;&gt;20</title>
<path fill="none" stroke="black" d="M382.828,-434.834C393.859,-424.806 408.836,-411.191 421.239,-399.916"/>
<polygon fill="black" stroke="black" points="423.905,-402.222 428.95,-392.906 419.196,-397.043 423.905,-402.222"/>
</g>
<!-- 18 -->
<g id="node17" class="node"><title>18</title>
<ellipse fill="none" stroke="black" cx="278.246" cy="-234" rx="27" ry="18"/>
<text text-anchor="middle" x="278.246" y="-230.3" font-family="Times,serif" font-size="14.00">c</text>
</g>
<!-- 17 -->
<g id="node18" class="node"><title>17</title>
<ellipse fill="none" stroke="black" cx="278.246" cy="-306" rx="42.4939" ry="18"/>
<text text-anchor="middle" x="278.246" y="-302.3" font-family="Times,serif" font-size="14.00">UNARY</text>
</g>
<!-- 17&#45;&gt;18 -->
<g id="edge13" class="edge"><title>17&#45;&gt;18</title>
<path fill="none" stroke="black" d="M278.246,-287.697C278.246,-279.983 278.246,-270.712 278.246,-262.112"/>
<polygon fill="black" stroke="black" points="281.746,-262.104 278.246,-252.104 274.746,-262.104 281.746,-262.104"/>
</g>
<!-- 16&#45;&gt;17 -->
<g id="edge14" class="edge"><title>16&#45;&gt;17</title>
<path fill="none" stroke="black" d="M351.268,-363.17C338.364,-353.245 320.731,-339.681 306.025,-328.369"/>
<polygon fill="black" stroke="black" points="307.823,-325.336 297.763,-322.013 303.555,-330.884 307.823,-325.336"/>
</g>
<!-- 19 -->
<g id="node20" class="node"><title>19</title>
<ellipse fill="none" stroke="black" cx="369.246" cy="-306" rx="31.3957" ry="18"/>
<text text-anchor="middle" x="369.246" y="-302.3" font-family="Times,serif" font-size="14.00">AND&#39;</text>
</g>
<!-- 16&#45;&gt;19 -->
<g id="edge15" class="edge"><title>16&#45;&gt;19</title>
<path fill="none" stroke="black" d="M369.246,-359.697C369.246,-351.983 369.246,-342.712 369.246,-334.112"/>
<polygon fill="black" stroke="black" points="372.746,-334.104 369.246,-324.104 365.746,-334.104 372.746,-334.104"/>
</g>
<!-- 22 -->
<g id="node22" class="node"><title>22</title>
<ellipse fill="none" stroke="black" cx="463.246" cy="-450" rx="27.0966" ry="18"/>
<text text-anchor="middle" x="463.246" y="-446.3" font-family="Times,serif" font-size="14.00">impl</text>
</g>
<!-- 21&#45;&gt;22 -->
<g id="edge20" class="edge"><title>21&#45;&gt;22</title>
<path fill="none" stroke="black" d="M490.715,-504.411C486.411,-496.042 481.097,-485.71 476.294,-476.37"/>
<polygon fill="black" stroke="black" points="479.403,-474.762 471.717,-467.47 473.178,-477.964 479.403,-474.762"/>
</g>
<!-- 23 -->
<g id="node28" class="node"><title>23</title>
<ellipse fill="none" stroke="black" cx="535.246" cy="-450" rx="27" ry="18"/>
<text text-anchor="middle" x="535.246" y="-446.3" font-family="Times,serif" font-size="14.00">OR</text>
</g>
<!-- 21&#45;&gt;23 -->
<g id="edge37" class="edge"><title>21&#45;&gt;23</title>
<path fill="none" stroke="black" d="M507.778,-504.411C512.082,-496.042 517.395,-485.71 522.199,-476.37"/>
<polygon fill="black" stroke="black" points="525.315,-477.964 526.776,-467.47 519.09,-474.762 525.315,-477.964"/>
</g>
<!-- 40 -->
<g id="node41" class="node"><title>40</title>
<ellipse fill="none" stroke="black" cx="614.246" cy="-450" rx="33.5952" ry="18"/>
<text text-anchor="middle" x="614.246" y="-446.3" font-family="Times,serif" font-size="14.00">IMPL&#39;</text>
</g>
<!-- 21&#45;&gt;40 -->
<g id="edge38" class="edge"><title>21&#45;&gt;40</title>
<path fill="none" stroke="black" d="M520.607,-507.998C538.407,-497.163 563.977,-481.599 583.901,-469.471"/>
<polygon fill="black" stroke="black" points="585.887,-472.36 592.609,-464.17 582.247,-466.38 585.887,-472.36"/>
</g>
<!-- 26 -->
<g id="node24" class="node"><title>26</title>
<ellipse fill="none" stroke="black" cx="460.246" cy="-234" rx="27" ry="18"/>
<text text-anchor="middle" x="460.246" y="-230.3" font-family="Times,serif" font-size="14.00">d</text>
</g>
<!-- 25 -->
<g id="node25" class="node"><title>25</title>
<ellipse fill="none" stroke="black" cx="460.246" cy="-306" rx="42.4939" ry="18"/>
<text text-anchor="middle" x="460.246" y="-302.3" font-family="Times,serif" font-size="14.00">UNARY</text>
</g>
<!-- 25&#45;&gt;26 -->
<g id="edge21" class="edge"><title>25&#45;&gt;26</title>
<path fill="none" stroke="black" d="M460.246,-287.697C460.246,-279.983 460.246,-270.712 460.246,-262.112"/>
<polygon fill="black" stroke="black" points="463.746,-262.104 460.246,-252.104 456.746,-262.104 463.746,-262.104"/>
</g>
<!-- 24 -->
<g id="node26" class="node"><title>24</title>
<ellipse fill="none" stroke="black" cx="535.246" cy="-378" rx="29.795" ry="18"/>
<text text-anchor="middle" x="535.246" y="-374.3" font-family="Times,serif" font-size="14.00">AND</text>
</g>
<!-- 24&#45;&gt;25 -->
<g id="edge22" class="edge"><title>24&#45;&gt;25</title>
<path fill="none" stroke="black" d="M519.706,-362.496C509.596,-353.06 496.199,-340.556 484.681,-329.806"/>
<polygon fill="black" stroke="black" points="486.769,-326.967 477.07,-322.703 481.993,-332.084 486.769,-326.967"/>
</g>
<!-- 27 -->
<g id="node27" class="node"><title>27</title>
<ellipse fill="none" stroke="black" cx="551.246" cy="-306" rx="31.3957" ry="18"/>
<text text-anchor="middle" x="551.246" y="-302.3" font-family="Times,serif" font-size="14.00">AND&#39;</text>
</g>
<!-- 24&#45;&gt;27 -->
<g id="edge23" class="edge"><title>24&#45;&gt;27</title>
<path fill="none" stroke="black" d="M539.119,-360.055C540.901,-352.261 543.058,-342.822 545.057,-334.079"/>
<polygon fill="black" stroke="black" points="548.481,-334.804 547.298,-324.275 541.657,-333.244 548.481,-334.804"/>
</g>
<!-- 23&#45;&gt;24 -->
<g id="edge24" class="edge"><title>23&#45;&gt;24</title>
<path fill="none" stroke="black" d="M535.246,-431.697C535.246,-423.983 535.246,-414.712 535.246,-406.112"/>
<polygon fill="black" stroke="black" points="538.746,-406.104 535.246,-396.104 531.746,-406.104 538.746,-406.104"/>
</g>
<!-- 28 -->
<g id="node30" class="node"><title>28</title>
<ellipse fill="none" stroke="black" cx="665.246" cy="-378" rx="27" ry="18"/>
<text text-anchor="middle" x="665.246" y="-374.3" font-family="Times,serif" font-size="14.00">OR&#39;</text>
</g>
<!-- 23&#45;&gt;28 -->
<g id="edge36" class="edge"><title>23&#45;&gt;28</title>
<path fill="none" stroke="black" d="M555.559,-438.062C577.088,-426.47 611.295,-408.051 635.784,-394.864"/>
<polygon fill="black" stroke="black" points="637.502,-397.914 644.647,-390.092 634.183,-391.751 637.502,-397.914"/>
</g>
<!-- 29 -->
<g id="node29" class="node"><title>29</title>
<ellipse fill="none" stroke="black" cx="627.246" cy="-306" rx="27" ry="18"/>
<text text-anchor="middle" x="627.246" y="-302.3" font-family="Times,serif" font-size="14.00">or</text>
</g>
<!-- 28&#45;&gt;29 -->
<g id="edge25" class="edge"><title>28&#45;&gt;29</title>
<path fill="none" stroke="black" d="M656.433,-360.765C651.829,-352.283 646.091,-341.714 640.925,-332.197"/>
<polygon fill="black" stroke="black" points="643.859,-330.266 636.012,-323.147 637.707,-333.606 643.859,-330.266"/>
</g>
<!-- 30 -->
<g id="node33" class="node"><title>30</title>
<ellipse fill="none" stroke="black" cx="702.246" cy="-306" rx="29.795" ry="18"/>
<text text-anchor="middle" x="702.246" y="-302.3" font-family="Times,serif" font-size="14.00">AND</text>
</g>
<!-- 28&#45;&gt;30 -->
<g id="edge34" class="edge"><title>28&#45;&gt;30</title>
<path fill="none" stroke="black" d="M673.828,-360.765C678.247,-352.404 683.738,-342.016 688.712,-332.606"/>
<polygon fill="black" stroke="black" points="691.876,-334.11 693.454,-323.633 685.687,-330.839 691.876,-334.11"/>
</g>
<!-- 39 -->
<g id="node40" class="node"><title>39</title>
<ellipse fill="none" stroke="black" cx="777.246" cy="-306" rx="27" ry="18"/>
<text text-anchor="middle" x="777.246" y="-302.3" font-family="Times,serif" font-size="14.00">OR&#39;</text>
</g>
<!-- 28&#45;&gt;39 -->
<g id="edge35" class="edge"><title>28&#45;&gt;39</title>
<path fill="none" stroke="black" d="M684.246,-365.125C702.186,-353.913 729.297,-336.968 749.626,-324.263"/>
<polygon fill="black" stroke="black" points="751.529,-327.201 758.154,-318.933 747.819,-321.265 751.529,-327.201"/>
</g>
<!-- 32 -->
<g id="node31" class="node"><title>32</title>
<ellipse fill="none" stroke="black" cx="570.246" cy="-162" rx="27" ry="18"/>
<text text-anchor="middle" x="570.246" y="-158.3" font-family="Times,serif" font-size="14.00">e</text>
</g>
<!-- 31 -->
<g id="node32" class="node"><title>31</title>
<ellipse fill="none" stroke="black" cx="579.246" cy="-234" rx="42.4939" ry="18"/>
<text text-anchor="middle" x="579.246" y="-230.3" font-family="Times,serif" font-size="14.00">UNARY</text>
</g>
<!-- 31&#45;&gt;32 -->
<g id="edge26" class="edge"><title>31&#45;&gt;32</title>
<path fill="none" stroke="black" d="M577.022,-215.697C576.03,-207.983 574.838,-198.712 573.732,-190.112"/>
<polygon fill="black" stroke="black" points="577.192,-189.576 572.445,-180.104 570.249,-190.469 577.192,-189.576"/>
</g>
<!-- 30&#45;&gt;31 -->
<g id="edge27" class="edge"><title>30&#45;&gt;31</title>
<path fill="none" stroke="black" d="M681.102,-292.967C662.23,-282.227 634.282,-266.321 612.433,-253.887"/>
<polygon fill="black" stroke="black" points="613.909,-250.699 603.486,-248.795 610.446,-256.783 613.909,-250.699"/>
</g>
<!-- 33 -->
<g id="node35" class="node"><title>33</title>
<ellipse fill="none" stroke="black" cx="720.246" cy="-234" rx="31.3957" ry="18"/>
<text text-anchor="middle" x="720.246" y="-230.3" font-family="Times,serif" font-size="14.00">AND&#39;</text>
</g>
<!-- 30&#45;&gt;33 -->
<g id="edge33" class="edge"><title>30&#45;&gt;33</title>
<path fill="none" stroke="black" d="M706.604,-288.055C708.608,-280.261 711.035,-270.822 713.283,-262.079"/>
<polygon fill="black" stroke="black" points="716.703,-262.832 715.804,-252.275 709.924,-261.089 716.703,-262.832"/>
</g>
<!-- 34 -->
<g id="node34" class="node"><title>34</title>
<ellipse fill="none" stroke="black" cx="642.246" cy="-162" rx="27" ry="18"/>
<text text-anchor="middle" x="642.246" y="-158.3" font-family="Times,serif" font-size="14.00">and</text>
</g>
<!-- 33&#45;&gt;34 -->
<g id="edge28" class="edge"><title>33&#45;&gt;34</title>
<path fill="none" stroke="black" d="M704.085,-218.496C692.957,-208.51 677.999,-195.086 665.582,-183.942"/>
<polygon fill="black" stroke="black" points="667.635,-181.082 657.855,-177.008 662.96,-186.292 667.635,-181.082"/>
</g>
<!-- 35 -->
<g id="node38" class="node"><title>35</title>
<ellipse fill="none" stroke="black" cx="729.246" cy="-162" rx="42.4939" ry="18"/>
<text text-anchor="middle" x="729.246" y="-158.3" font-family="Times,serif" font-size="14.00">UNARY</text>
</g>
<!-- 33&#45;&gt;35 -->
<g id="edge31" class="edge"><title>33&#45;&gt;35</title>
<path fill="none" stroke="black" d="M722.471,-215.697C723.463,-207.983 724.655,-198.712 725.76,-190.112"/>
<polygon fill="black" stroke="black" points="729.243,-190.469 727.047,-180.104 722.3,-189.576 729.243,-190.469"/>
</g>
<!-- 38 -->
<g id="node39" class="node"><title>38</title>
<ellipse fill="none" stroke="black" cx="820.246" cy="-162" rx="31.3957" ry="18"/>
<text text-anchor="middle" x="820.246" y="-158.3" font-family="Times,serif" font-size="14.00">AND&#39;</text>
</g>
<!-- 33&#45;&gt;38 -->
<g id="edge32" class="edge"><title>33&#45;&gt;38</title>
<path fill="none" stroke="black" d="M739.527,-219.503C754.606,-208.948 775.772,-194.132 792.646,-182.32"/>
<polygon fill="black" stroke="black" points="794.839,-185.057 801.024,-176.455 790.825,-179.323 794.839,-185.057"/>
</g>
<!-- 37 -->
<g id="node36" class="node"><title>37</title>
<ellipse fill="none" stroke="black" cx="729.246" cy="-18" rx="27" ry="18"/>
<text text-anchor="middle" x="729.246" y="-14.3" font-family="Times,serif" font-size="14.00">f</text>
</g>
<!-- 36 -->
<g id="node37" class="node"><title>36</title>
<ellipse fill="none" stroke="black" cx="729.246" cy="-90" rx="42.4939" ry="18"/>
<text text-anchor="middle" x="729.246" y="-86.3" font-family="Times,serif" font-size="14.00">UNARY</text>
</g>
<!-- 36&#45;&gt;37 -->
<g id="edge29" class="edge"><title>36&#45;&gt;37</title>
<path fill="none" stroke="black" d="M729.246,-71.6966C729.246,-63.9827 729.246,-54.7125 729.246,-46.1124"/>
<polygon fill="black" stroke="black" points="732.746,-46.1043 729.246,-36.1043 725.746,-46.1044 732.746,-46.1043"/>
</g>
<!-- 35&#45;&gt;36 -->
<g id="edge30" class="edge"><title>35&#45;&gt;36</title>
<path fill="none" stroke="black" d="M729.246,-143.697C729.246,-135.983 729.246,-126.712 729.246,-118.112"/>
<polygon fill="black" stroke="black" points="732.746,-118.104 729.246,-108.104 725.746,-118.104 732.746,-118.104"/>
</g>
</g>
</svg>
